<svg width="1258" height="1340" viewBox="0 0 1258 1340" fill="none" xmlns="http://www.w3.org/2000/svg">
    <path opacity="0.304348"
        d="M1586.63 1663.9C1589.72 1673.71 1598.15 1680.45 1607.58 1680.66L2031.63 1689.94C2037.54 1690.07 2043.18 1687.59 2047.28 1683.07L2449.51 1239.65C2452.81 1236.01 2454.9 1231.27 2455.49 1226.15L2518.66 670.177C2519.65 661.434 2516.14 652.669 2509.51 647.37L2200.36 400.039C2193.74 394.74 2185.08 393.768 2177.84 397.51L1717.17 635.471C1712.92 637.666 1709.48 641.326 1707.36 645.902L1448.67 1204.16C1446.03 1209.85 1445.64 1216.53 1447.58 1222.68L1586.63 1663.9Z"
        stroke="url(#paint0_linear_1_20)" stroke-opacity="0.2" stroke-width="4" />
    <path opacity="0.318841"
        d="M1520.87 1643.36C1523.48 1653.19 1531.42 1660.27 1540.7 1661.04L1960.43 1695.47C1966.35 1695.96 1972.15 1693.79 1976.51 1689.48L2394.72 1274.93C2398.25 1271.44 2400.61 1266.74 2401.44 1261.58L2489.07 715.456C2490.46 706.808 2487.41 697.927 2481.11 692.315L2185.86 429.039C2179.57 423.427 2171.04 421.982 2163.65 425.275L1696.75 633.215C1692.34 635.183 1688.66 638.701 1686.28 643.227L1405 1179.86C1402.07 1185.45 1401.35 1192.15 1403.01 1198.43L1520.87 1643.36Z"
        stroke="url(#paint1_linear_1_20)" stroke-opacity="0.2" stroke-width="4" />
    <path opacity="0.333333"
        d="M1468.86 1621.81C1470.99 1631.64 1478.44 1639.03 1487.54 1640.33L1901.74 1699.45C1907.65 1700.29 1913.6 1698.45 1918.2 1694.35L2350.75 1309.31C2354.51 1305.97 2357.14 1301.33 2358.22 1296.13L2469.57 761.148C2471.34 752.616 2468.75 743.651 2462.8 737.749L2182.1 459.446C2176.15 453.544 2167.78 451.639 2160.26 454.476L1688.72 632.338C1684.14 634.065 1680.23 637.426 1677.6 641.889L1375.06 1155.83C1371.83 1161.3 1370.79 1168.01 1372.17 1174.4L1468.86 1621.81Z"
        stroke="url(#paint2_linear_1_20)" stroke-opacity="0.2" stroke-width="4" />
    <path opacity="0.347826"
        d="M1406.63 1599.37C1408.28 1609.17 1415.24 1616.84 1424.14 1618.66L1831.61 1701.91C1837.5 1703.11 1843.58 1701.6 1848.42 1697.74L2293.66 1342.71C2297.65 1339.53 2300.54 1334.97 2301.88 1329.76L2436.13 807.129C2438.28 798.736 2436.15 789.716 2430.55 783.548L2165.03 491.168C2159.43 485 2151.23 482.65 2143.61 485.024L1668.99 632.851C1664.26 634.325 1660.12 637.512 1657.23 641.898L1334.81 1132.17C1331.3 1137.51 1329.93 1144.21 1331.03 1150.69L1406.63 1599.37Z"
        stroke="url(#paint3_linear_1_20)" stroke-opacity="0.2" stroke-width="4" />
    <path opacity="0.362319"
        d="M1358.2 1576.17C1359.39 1585.91 1365.85 1593.81 1374.53 1596.13L1774.12 1702.9C1779.96 1704.47 1786.16 1703.3 1791.24 1699.68L2247.51 1375.06C2251.72 1372.07 2254.88 1367.6 2256.48 1362.39L2412.76 853.275C2415.29 845.043 2413.61 835.996 2408.37 829.587L2158.59 524.112C2153.35 517.703 2145.35 514.921 2137.65 516.828L1661.5 634.761L1661.11 632.728L1661.5 634.761C1656.63 635.968 1652.26 638.966 1649.12 643.259L1308.24 1109C1304.44 1114.19 1302.74 1120.85 1303.54 1127.41L1358.2 1576.17Z"
        stroke="url(#paint4_linear_1_20)" stroke-opacity="0.2" stroke-width="4" />
    <path opacity="0.376812"
        d="M1299.61 1552.32C1300.34 1561.97 1306.3 1570.08 1314.73 1572.88L1705.33 1702.49C1711.11 1704.41 1717.4 1703.6 1722.71 1700.25L2188.35 1406.32C2192.78 1403.53 2196.21 1399.17 2198.08 1393.97L2375.49 899.466C2378.38 891.415 2377.15 882.368 2372.28 875.741L2138.75 558.185C2133.87 551.557 2126.09 548.359 2118.34 549.796L1642.19 638.071C1637.19 638.999 1632.59 641.791 1629.19 645.974L1271.29 1086.41C1267.21 1091.42 1265.18 1098.03 1265.68 1104.65L1299.61 1552.32Z"
        stroke="url(#paint5_linear_1_20)" stroke-opacity="0.2" stroke-width="4" />
    <path opacity="0.391304"
        d="M1254.84 1527.93C1255.13 1537.48 1260.6 1545.77 1268.76 1549.02L1649.3 1700.73C1655 1703 1661.37 1702.54 1666.89 1699.48L2140.26 1436.43C2144.89 1433.85 2148.59 1429.61 2150.72 1424.45L2348.31 945.583C2351.55 937.732 2350.77 928.712 2346.27 921.889L2129.46 593.289C2124.96 586.466 2117.41 582.866 2109.63 583.832L1634.98 642.78C1629.85 643.416 1625.05 645.985 1621.4 650.04L1247.92 1064.49C1243.57 1069.32 1241.21 1075.86 1241.41 1082.52L1254.84 1527.93Z"
        stroke="url(#paint6_linear_1_20)" stroke-opacity="0.2" stroke-width="4" />
    <path opacity="0.405797"
        d="M1211.93 1503.13C1211.78 1512.55 1216.76 1520.98 1224.63 1524.67L1594.09 1697.66C1599.69 1700.28 1606.12 1700.2 1611.83 1697.44L2091.28 1465.33C2096.12 1462.99 2100.09 1458.9 2102.49 1453.78L2319.26 991.507C2322.84 983.875 2322.51 974.906 2318.38 967.91L2118.7 629.326C2114.57 622.33 2107.27 618.344 2099.48 618.84L1627.8 648.882C1622.57 649.215 1617.56 651.543 1613.66 655.452L1226.08 1043.35C1221.47 1047.97 1218.78 1054.41 1218.68 1061.1L1211.93 1503.13Z"
        stroke="url(#paint7_linear_1_20)" stroke-opacity="0.2" stroke-width="4" />
    <path opacity="0.42029"
        d="M1158.86 1478.02C1158.3 1487.3 1162.78 1495.85 1170.36 1499.95L1527.75 1693.37C1533.23 1696.34 1539.7 1696.63 1545.6 1694.18L2029.51 1492.99C2034.53 1490.9 2038.76 1486.97 2041.43 1481.92L2276.36 1037.12C2280.27 1029.73 2280.37 1020.83 2276.62 1013.69L2094.43 666.198C2090.68 659.05 2083.63 654.695 2075.87 654.722L1608.58 656.367C1603.27 656.386 1598.06 658.456 1593.91 662.201L1193.73 1023.07C1188.85 1027.47 1185.84 1033.79 1185.44 1040.49L1158.86 1478.02Z"
        stroke="url(#paint8_linear_1_20)" stroke-opacity="0.2" stroke-width="4" />
    <path opacity="0.434783"
        d="M1119.63 1452.74C1118.66 1461.85 1122.67 1470.5 1129.93 1474.99L1474.33 1687.92C1479.67 1691.21 1486.17 1691.89 1492.23 1689.77L1978.99 1519.36C1984.19 1517.54 1988.68 1513.79 1991.61 1508.82L2243.66 1082.32C2247.88 1075.18 2248.4 1066.38 2245.03 1059.1L2080.63 703.806C2077.26 696.526 2070.49 691.817 2062.76 691.379L1601.26 665.221C1595.88 664.916 1590.5 666.711 1586.1 670.273L1174.79 1003.74C1169.67 1007.89 1166.34 1014.08 1165.63 1020.77L1119.63 1452.74Z"
        stroke="url(#paint9_linear_1_20)" stroke-opacity="0.2" stroke-width="4" />
    <path opacity="0.449275"
        d="M1082.24 1427.38C1080.87 1436.31 1084.4 1445.04 1091.34 1449.9L1421.88 1681.36C1427.06 1684.98 1433.56 1686.04 1439.76 1684.26L1927.81 1544.4C1933.17 1542.86 1937.9 1539.33 1941.11 1534.46L2209.18 1126.99C2213.7 1120.12 2214.63 1111.43 2211.64 1104.04L2065.28 742.049C2062.29 734.657 2055.8 729.61 2048.14 728.712L1593.77 675.425C1588.34 674.788 1582.79 676.293 1578.17 679.652L1157.21 985.443C1151.86 989.329 1148.22 995.355 1147.2 1002.02L1082.24 1427.38Z"
        stroke="url(#paint10_linear_1_20)" stroke-opacity="0.2" stroke-width="4" />
    <path opacity="0.463768"
        d="M1046.66 1402.07C1044.91 1410.81 1047.97 1419.59 1054.58 1424.8L1370.44 1673.77C1375.44 1677.72 1381.92 1679.16 1388.25 1677.74L1876.04 1568.09C1881.55 1566.85 1886.51 1563.54 1889.97 1558.8L2172.97 1171.02C2177.78 1164.43 2179.11 1155.89 2176.5 1148.4L2048.36 780.827C2045.75 773.342 2039.57 767.974 2032 766.621L1586.05 686.957C1580.59 685.983 1574.89 687.181 1570.05 690.318L1140.92 968.248C1135.35 971.854 1131.41 977.701 1130.09 984.317L1046.66 1402.07Z"
        stroke="url(#paint11_linear_1_20)" stroke-opacity="0.2" stroke-width="4" />
    <path opacity="0.478261"
        d="M1000.87 1376.92C998.756 1385.45 1001.36 1394.27 1007.62 1399.8L1308.04 1665.23C1312.85 1669.48 1319.29 1671.31 1325.72 1670.25L1811.75 1590.41C1817.39 1589.48 1822.57 1586.41 1826.29 1581.81L2123.09 1214.31C2128.16 1208.03 2129.89 1199.63 2127.66 1192.07L2017.88 820.041C2015.65 812.48 2009.78 806.806 2002.31 805.006L1566.03 699.792C1560.57 698.475 1554.73 699.353 1549.68 702.25L1113.85 952.231C1108.08 955.54 1103.85 961.186 1102.23 967.738L1000.87 1376.92Z"
        stroke="url(#paint12_linear_1_20)" stroke-opacity="0.2" stroke-width="4" />
    <path opacity="0.492754"
        d="M968.848 1352.03C966.379 1360.34 968.53 1369.18 974.443 1375.02L1258.72 1655.8C1263.32 1660.35 1269.7 1662.56 1276.21 1661.88L1759.02 1611.32C1764.76 1610.72 1770.16 1607.91 1774.12 1603.48L2083.58 1256.78C2088.92 1250.8 2091.02 1242.57 2089.17 1234.95L1997.83 859.591C1995.98 851.971 1990.42 846.007 1983.08 843.768L1557.65 713.9C1552.21 712.237 1546.26 712.781 1541.02 715.422L1099.94 937.457C1093.98 940.455 1089.47 945.881 1087.55 952.351L968.848 1352.03Z"
        stroke="url(#paint13_linear_1_20)" stroke-opacity="0.2" stroke-width="4" />
    <path opacity="0.507246"
        d="M938.56 1327.51C935.747 1335.6 937.455 1344.44 943.011 1350.57L1210.51 1645.56C1214.89 1650.39 1221.17 1652.98 1227.75 1652.68L1705.92 1630.81C1711.75 1630.55 1717.34 1628.03 1721.53 1623.77L2042.52 1298.31C2048.1 1292.65 2050.57 1284.61 2049.09 1276.95L1976.21 899.377C1974.73 891.715 1969.5 885.478 1962.31 882.81L1548.86 729.247C1543.46 727.238 1537.42 727.438 1532 729.804L1087.09 923.988C1080.97 926.66 1076.19 931.846 1073.97 938.217L938.56 1327.51Z"
        stroke="url(#paint14_linear_1_20)" stroke-opacity="0.2" stroke-width="4" />
    <path opacity="0.521739"
        d="M909.967 1303.47C906.822 1311.32 908.092 1320.16 913.287 1326.55L1163.44 1634.58C1167.58 1639.68 1173.75 1642.65 1180.37 1642.74L1652.53 1648.88C1658.42 1648.96 1664.18 1646.74 1668.6 1642.68L1999.96 1338.82C2005.76 1333.5 2008.59 1325.66 2007.49 1317.97L1953.02 939.303C1951.91 931.614 1947.02 925.119 1940.01 922.032L1539.6 745.797C1534.25 743.444 1528.15 743.29 1522.57 745.367L1075.24 911.879C1068.97 914.212 1063.94 919.142 1061.43 925.396L909.967 1303.47Z"
        stroke="url(#paint15_linear_1_20)" stroke-opacity="0.2" stroke-width="4" />
    <path opacity="0.536232"
        d="M883.025 1280C879.559 1287.61 880.4 1296.42 885.227 1303.07L1117.52 1622.94C1121.41 1628.29 1127.45 1631.64 1134.07 1632.11L1598.92 1665.52C1604.85 1665.95 1610.76 1664.04 1615.4 1660.2L1955.97 1378.24C1961.98 1373.26 1965.16 1365.63 1964.42 1357.93L1928.28 979.273C1927.55 971.572 1923 964.834 1916.18 961.341L1529.81 763.511C1524.55 760.817 1518.41 760.303 1512.69 762.077L1064.31 901.181C1057.91 903.164 1052.64 907.82 1049.85 913.942L883.025 1280Z"
        stroke="url(#paint16_linear_1_20)" stroke-opacity="0.2" stroke-width="4" />
    <path opacity="0.550725"
        d="M857.687 1257.21C853.909 1264.57 854.327 1273.34 858.782 1280.22L1072.78 1610.72C1076.4 1616.3 1082.28 1620.01 1088.9 1620.88L1545.17 1680.73C1551.12 1681.51 1557.16 1679.93 1561.99 1676.32L1910.62 1416.47C1916.83 1411.85 1920.34 1404.44 1919.98 1396.74L1902.01 1019.19C1901.64 1011.49 1897.45 1004.53 1890.83 1000.64L1519.45 782.347C1514.29 779.317 1508.14 778.438 1502.3 779.898L1054.2 891.936C1047.71 893.561 1042.21 897.928 1039.14 903.9L857.687 1257.21Z"
        stroke="url(#paint17_linear_1_20)" stroke-opacity="0.2" stroke-width="4" />
    <path opacity="0.565217"
        d="M833.899 1235.19C829.82 1242.28 829.82 1251.01 833.899 1258.11L1029.23 1597.98C1032.57 1603.79 1038.27 1607.85 1044.85 1609.11L1491.36 1694.5C1497.29 1695.64 1503.43 1694.39 1508.45 1691.04L1864 1453.46C1870.38 1449.19 1874.22 1442.01 1874.22 1434.33V1058.96C1874.22 1051.28 1870.38 1044.11 1864 1039.84L1508.45 802.258C1503.43 798.901 1497.29 797.656 1491.36 798.791L1044.85 884.185C1038.27 885.444 1032.57 889.508 1029.23 895.315L833.899 1235.19Z"
        stroke="url(#paint18_linear_1_20)" stroke-opacity="0.2" stroke-width="4" />
    <path opacity="0.57971"
        d="M799.604 1214.02C795.235 1220.85 794.822 1229.52 798.519 1236.81L974.879 1584.81C977.925 1590.82 983.429 1595.23 989.947 1596.87L1425.54 1706.86C1431.44 1708.35 1437.66 1707.45 1442.86 1704.36L1804.17 1489.11C1810.72 1485.21 1814.87 1478.28 1815.23 1470.63L1832.94 1098.5C1833.31 1090.85 1829.84 1083.48 1823.7 1078.85L1484.79 823.198C1479.92 819.525 1473.82 817.913 1467.81 818.716L1024.16 877.961C1017.52 878.847 1011.63 882.596 1008.03 888.223L799.604 1214.02Z"
        stroke="url(#paint19_linear_1_20)" stroke-opacity="0.2" stroke-width="4" />
    <path opacity="0.594203"
        d="M778.74 1193.79C774.089 1200.34 773.269 1208.94 776.58 1216.42L933.731 1571.29C936.476 1577.48 941.758 1582.22 948.191 1584.24L1371.81 1717.81C1377.64 1719.65 1383.92 1719.1 1389.26 1716.28L1755.23 1523.39C1761.92 1519.86 1766.37 1513.19 1767.1 1505.58L1802.21 1137.72C1802.94 1130.11 1799.85 1122.57 1793.96 1117.58L1472.42 845.118C1467.72 841.14 1461.68 839.166 1455.63 839.629L1016.05 873.29C1009.38 873.801 1003.31 877.223 999.461 882.656L778.74 1193.79Z"
        stroke="url(#paint20_linear_1_20)" stroke-opacity="0.2" stroke-width="4" />
    <path opacity="0.608696"
        d="M747.243 1174.58C742.319 1180.85 741.094 1189.37 744.015 1197.01L881.791 1557.48C884.224 1563.84 889.266 1568.89 895.589 1571.29L1306.21 1727.36C1311.96 1729.55 1318.28 1729.36 1323.75 1726.83L1693.25 1556.22C1700.08 1553.07 1704.82 1546.66 1705.9 1539.11L1758.05 1176.53C1759.14 1168.98 1756.43 1161.27 1750.82 1155.95L1447.29 867.965C1442.79 863.696 1436.84 861.365 1430.76 861.487L996.432 870.195C989.743 870.329 983.531 873.414 979.432 878.639L747.243 1174.58Z"
        stroke="url(#paint21_linear_1_20)" stroke-opacity="0.2" stroke-width="4" />
    <path opacity="0.623188"
        d="M729.041 1156.46C723.854 1162.45 722.228 1170.87 724.755 1178.67L843.057 1543.46C845.169 1549.97 849.952 1555.32 856.143 1558.09L1252.84 1735.55C1258.48 1738.07 1264.8 1738.24 1270.39 1736L1642.33 1587.56C1649.27 1584.79 1654.29 1578.66 1655.73 1571.19L1724.51 1214.84C1725.96 1207.37 1723.64 1199.52 1718.32 1193.88L1433.37 891.687C1429.08 887.143 1423.25 884.463 1417.17 884.242L989.218 868.691C982.539 868.448 976.195 871.19 971.861 876.193L729.041 1156.46Z"
        stroke="url(#paint22_linear_1_20)" stroke-opacity="0.2" stroke-width="4" />
    <path opacity="0.637681"
        d="M700.063 1139.51C694.621 1145.2 692.598 1153.52 694.726 1161.45L793.524 1529.31C795.307 1535.95 799.813 1541.57 805.85 1544.7L1187.74 1742.39C1193.25 1745.24 1199.55 1745.76 1205.24 1743.83L1578.54 1617.37C1585.58 1614.98 1590.87 1609.14 1592.67 1601.75L1677.63 1252.59C1679.43 1245.2 1677.51 1237.22 1672.49 1231.28L1406.63 916.228C1402.57 911.427 1396.88 908.408 1390.82 907.845L970.324 868.789C963.676 868.171 957.219 870.563 952.66 875.332L700.063 1139.51Z"
        stroke="url(#paint23_linear_1_20)" stroke-opacity="0.2" stroke-width="4" />
    <path opacity="0.652174"
        d="M672.233 1123.79C666.545 1129.18 664.127 1137.38 665.852 1145.42L745.181 1515.1C746.63 1521.84 750.842 1527.73 756.705 1531.2L1122.99 1747.91C1128.35 1751.08 1134.61 1751.95 1140.37 1750.34L1513.99 1645.6C1521.11 1643.6 1526.66 1638.05 1528.81 1630.76L1629.45 1289.69C1631.6 1282.4 1630.08 1274.31 1625.38 1268.09L1379.03 941.533C1375.23 936.492 1369.7 933.146 1363.68 932.244L951.662 870.494C945.067 869.505 938.516 871.542 933.742 876.064L672.233 1123.79Z"
        stroke="url(#paint24_linear_1_20)" stroke-opacity="0.2" stroke-width="4" />
    <path opacity="0.666667"
        d="M657.471 1109.36C651.547 1114.44 648.736 1122.5 650.054 1130.64L710.018 1500.89C711.125 1507.73 715.029 1513.86 720.698 1517.65L1070.65 1752.15C1075.83 1755.62 1082.03 1756.84 1087.85 1755.54L1460.77 1672.22C1467.95 1670.61 1473.75 1665.36 1476.25 1658.19L1592.03 1326.07C1594.53 1318.89 1593.41 1310.72 1589.05 1304.23L1362.55 967.545C1359.01 962.284 1353.67 958.626 1347.71 957.389L945.146 873.806C938.625 872.452 931.999 874.129 927.022 878.394L657.471 1109.36Z"
        stroke="url(#paint25_linear_1_20)" stroke-opacity="0.2" stroke-width="4" />
    <path opacity="0.681159"
        d="M631.697 1096.27C625.546 1101.03 622.346 1108.94 623.252 1117.16L664.018 1486.77C664.779 1493.67 668.362 1500.02 673.819 1504.13L1006.78 1755.15C1011.76 1758.9 1017.88 1760.46 1023.74 1759.48L1394.96 1697.21C1402.2 1695.99 1408.23 1691.05 1411.07 1684.01L1541.41 1361.66C1544.26 1354.62 1543.55 1346.38 1539.53 1339.65L1333.17 994.206C1329.91 988.744 1324.76 984.788 1318.89 983.224L926.693 878.718C920.266 877.005 913.584 878.321 908.415 882.318L631.697 1096.27Z"
        stroke="url(#paint26_linear_1_20)" stroke-opacity="0.2" stroke-width="4" />
    <path opacity="0.695652"
        d="M618.825 1084.57C612.458 1089 608.872 1096.75 609.363 1105.02L631.162 1472.79C631.574 1479.74 634.823 1486.28 640.05 1490.7L955.433 1756.93C960.208 1760.96 966.214 1762.85 972.107 1762.18L1340.66 1720.54C1347.93 1719.72 1354.19 1715.1 1357.38 1708.21L1501.66 1396.4C1504.85 1389.51 1504.56 1381.22 1500.89 1374.26L1314.86 1021.46C1311.88 1015.82 1306.96 1011.58 1301.19 1009.69L920.217 885.22C913.903 883.157 907.183 884.111 901.834 887.829L618.825 1084.57Z"
        stroke="url(#paint27_linear_1_20)" stroke-opacity="0.2" stroke-width="4" />
    <path opacity="0.710145"
        d="M606.772 1074.31C600.199 1078.39 596.231 1085.96 596.302 1094.28L599.427 1459.02C599.487 1466 602.392 1472.72 607.374 1477.42L904.669 1757.54C909.218 1761.82 915.101 1764.04 921.002 1763.69L1285.97 1742.2C1293.26 1741.77 1299.73 1737.49 1303.25 1730.76L1460.83 1430.23C1464.36 1423.5 1464.49 1415.19 1461.18 1408.03L1295.6 1049.24C1292.93 1043.44 1288.24 1038.94 1282.59 1036.74L913.637 893.296C907.454 890.892 900.712 891.483 895.196 894.915L606.772 1074.31Z"
        stroke="url(#paint28_linear_1_20)" stroke-opacity="0.2" stroke-width="4" />
    <path opacity="0.724638"
        d="M583.448 1065.51C576.682 1069.25 572.336 1076.62 571.985 1084.94L556.788 1445.53C556.493 1452.51 559.045 1459.39 563.77 1464.35L842.54 1757.03C846.85 1761.55 852.593 1764.08 858.485 1764.05L1218.98 1762.19C1226.26 1762.16 1232.93 1758.22 1236.8 1751.67L1406.98 1463.09C1410.85 1456.54 1411.4 1448.23 1408.47 1440.89L1263.39 1077.49C1261.02 1071.55 1256.58 1066.8 1251.07 1064.31L894.871 902.924C888.835 900.189 882.09 900.42 876.418 903.555L583.448 1065.51Z"
        stroke="url(#paint29_linear_1_20)" stroke-opacity="0.2" stroke-width="4" />
    <path opacity="0.73913"
        d="M572.767 1058.2C565.821 1061.59 561.103 1068.74 560.328 1077.06L527.217 1432.37C526.568 1439.34 528.759 1446.35 533.212 1451.55L793.097 1755.44C797.157 1760.19 802.744 1763.02 808.612 1763.3L1163.78 1780.51C1171.05 1780.86 1177.91 1777.27 1182.1 1770.92L1364.19 1494.94C1368.38 1488.59 1369.36 1480.3 1366.81 1472.79L1242.2 1106.16C1240.14 1100.1 1235.97 1095.12 1230.61 1092.34L887.841 914.078C881.968 911.024 875.235 910.896 869.42 913.728L572.767 1058.2Z"
        stroke="url(#paint30_linear_1_20)" stroke-opacity="0.2" stroke-width="4" />
    <path opacity="0.753623"
        d="M550.638 1052.42C543.525 1055.43 538.443 1062.34 537.242 1070.63L486.682 1419.61C485.679 1426.54 487.503 1433.66 491.674 1439.1L732.388 1752.82C736.187 1757.78 741.604 1760.9 747.434 1761.49L1096.47 1797.15C1103.7 1797.89 1110.73 1794.66 1115.24 1788.53L1308.51 1525.71C1313.02 1519.58 1314.43 1511.34 1312.27 1503.7L1208.03 1135.17C1206.29 1129.02 1202.39 1123.83 1197.2 1120.77L868.468 926.728C862.772 923.366 856.067 922.882 850.123 925.403L550.638 1052.42Z"
        stroke="url(#paint31_linear_1_20)" stroke-opacity="0.2" stroke-width="4" />
    <path opacity="0.768116"
        d="M540.972 1048.17C533.707 1050.81 528.269 1057.46 526.643 1065.69L459.15 1407.3C457.793 1414.17 459.246 1421.38 463.124 1427.03L684.457 1749.24C687.988 1754.38 693.223 1757.77 699.001 1758.68L1041.13 1812.13C1048.31 1813.25 1055.5 1810.4 1060.32 1804.5L1264.02 1555.39C1268.84 1549.49 1270.67 1541.32 1268.91 1533.57L1184.87 1164.48C1183.45 1158.25 1179.83 1152.87 1174.82 1149.54L860.677 940.839C855.172 937.181 848.51 936.344 842.449 938.548L540.972 1048.17Z"
        stroke="url(#paint32_linear_1_20)" stroke-opacity="0.2" stroke-width="4" />
    <path opacity="0.782609"
        d="M531.679 1045.47C524.278 1047.72 518.495 1054.09 516.445 1062.24L432.585 1395.5C430.877 1402.29 431.954 1409.56 435.532 1415.4L637.347 1744.73C640.602 1750.04 645.644 1753.7 651.359 1754.91L985.856 1825.47C992.975 1826.97 1000.31 1824.49 1005.43 1818.85L1218.79 1583.92C1223.91 1578.27 1226.16 1570.2 1224.8 1562.36L1160.72 1194.03C1159.62 1187.74 1156.3 1182.18 1151.47 1178.6L852.395 956.37C847.093 952.429 840.489 951.244 834.324 953.125L531.679 1045.47Z"
        stroke="url(#paint33_linear_1_20)" stroke-opacity="0.2" stroke-width="4" />
    <path opacity="0.797101"
        d="M510.668 1044.32C503.149 1046.18 497.035 1052.25 494.563 1060.28L394.947 1384.25C392.891 1390.94 393.59 1398.25 396.861 1404.27L579.098 1739.36C582.071 1744.82 586.911 1748.74 592.551 1750.24L918.74 1837.19C925.776 1839.07 933.235 1836.97 938.652 1831.6L1160.88 1611.27C1166.29 1605.9 1168.97 1597.95 1168.01 1590.05L1123.57 1223.75C1122.81 1217.41 1119.77 1211.7 1115.15 1207.87L831.553 973.277C826.464 969.067 819.932 967.537 813.678 969.089L510.668 1044.32Z"
        stroke="url(#paint34_linear_1_20)" stroke-opacity="0.2" stroke-width="4" />
    <path opacity="0.811594"
        d="M501.85 1044.71C494.232 1046.18 487.8 1051.92 484.912 1059.82L370.196 1373.61C367.796 1380.17 368.116 1387.5 371.072 1393.67L533.744 1733.18C536.43 1738.79 541.061 1742.95 546.615 1744.74L863.865 1847.32C870.803 1849.56 878.37 1847.87 884.066 1842.79L1114.37 1637.43C1120.07 1632.35 1123.15 1624.55 1122.6 1616.61L1097.44 1253.58C1097 1247.22 1094.26 1241.37 1089.84 1237.31L822.082 991.512C817.216 987.045 810.769 985.176 804.438 986.396L501.85 1044.71Z"
        stroke="url(#paint35_linear_1_20)" stroke-opacity="0.2" stroke-width="4" />
    <path opacity="0.826087"
        d="M493.138 1046.65C485.441 1047.72 478.71 1053.1 475.412 1060.83L346.29 1363.61C343.551 1370.03 343.492 1377.36 346.129 1383.67L489.322 1726.26C491.717 1731.99 496.131 1736.38 501.59 1738.47L809.318 1855.89C816.14 1858.5 823.797 1857.2 829.757 1852.43L1067.34 1662.36C1073.3 1657.59 1076.78 1649.97 1076.64 1642.02L1070.31 1283.47C1070.2 1277.11 1067.77 1271.13 1063.56 1266.85L811.919 1011.02C807.285 1006.31 800.936 1004.11 794.542 1004.99L493.138 1046.65Z"
        stroke="url(#paint36_linear_1_20)" stroke-opacity="0.2" stroke-width="4" />
    <path opacity="0.84058"
        d="M484.443 1050.12C476.689 1050.78 469.678 1055.79 465.981 1063.32L323.184 1354.3C320.112 1360.56 319.675 1367.86 321.988 1374.29L445.86 1718.66C447.961 1724.5 452.152 1729.11 457.507 1731.48L755.177 1862.95C761.868 1865.9 769.595 1865.01 775.803 1860.57L1019.85 1686.06C1026.06 1681.62 1029.94 1674.21 1030.21 1666.27L1042.21 1313.36C1042.43 1307.01 1040.31 1300.92 1036.31 1296.43L801.002 1031.75C796.608 1026.81 790.368 1024.28 783.926 1024.82L484.443 1050.12Z"
        stroke="url(#paint37_linear_1_20)" stroke-opacity="0.2" stroke-width="4" />
    <path opacity="0.855072"
        d="M463.681 1055.09C455.892 1055.34 448.625 1059.96 444.539 1067.26L288.832 1345.71C285.434 1351.79 284.621 1359.05 286.606 1365.59L391.385 1710.44C393.189 1716.38 397.151 1721.2 402.395 1723.85L689.522 1868.53C696.066 1871.83 703.842 1871.35 710.28 1867.26L959.985 1708.51C966.423 1704.41 970.686 1697.24 971.364 1689.35L1001.14 1343.2C1001.68 1336.87 999.871 1330.68 996.101 1325.99L777.271 1053.65C773.125 1048.49 767.007 1045.63 760.529 1045.83L463.681 1055.09Z"
        stroke="url(#paint38_linear_1_20)" stroke-opacity="0.2" stroke-width="4" />
    <path opacity="0.869565"
        d="M454.768 1061.55C446.969 1061.38 439.47 1065.58 435.011 1072.63L267.187 1337.89C263.471 1343.76 262.284 1350.96 263.939 1357.58L349.922 1701.67C351.427 1707.69 355.156 1712.72 360.281 1715.64L636.43 1872.69C642.812 1876.32 650.614 1876.26 657.261 1872.53L911.817 1729.7C918.465 1725.97 923.095 1719.06 924.179 1711.24L971.11 1372.92C971.981 1366.64 970.479 1360.37 966.937 1355.48L764.675 1076.64C760.782 1071.27 754.798 1068.1 748.299 1067.95L454.768 1061.55Z"
        stroke="url(#paint39_linear_1_20)" stroke-opacity="0.2" stroke-width="4" />
    <path opacity="0.884058"
        d="M445.623 1069.45C437.839 1068.87 430.137 1072.64 425.321 1079.4L246.199 1330.86C242.174 1336.51 240.618 1343.62 241.939 1350.31L309.49 1692.41C310.694 1698.51 314.185 1703.73 319.185 1706.91L583.971 1875.48C590.176 1879.43 597.981 1879.78 604.817 1876.43L863.418 1749.65C870.253 1746.3 875.234 1739.67 876.72 1731.95L940.137 1402.48C941.334 1396.26 940.146 1389.91 936.835 1384.84L751.161 1100.66C747.528 1095.1 741.687 1091.61 735.181 1091.13L445.623 1069.45Z"
        stroke="url(#paint40_linear_1_20)" stroke-opacity="0.2" stroke-width="4" />
    <path opacity="0.898551"
        d="M436.168 1078.76C428.424 1077.77 420.55 1081.1 415.398 1087.54L225.82 1324.64C221.496 1330.05 219.573 1337.05 220.56 1343.8L270.108 1682.73C271.008 1688.89 274.256 1694.3 279.125 1697.75L532.214 1876.95C538.227 1881.21 546.011 1881.99 553.011 1879.03L814.86 1768.35C821.86 1765.39 827.172 1759.08 829.054 1751.48L908.237 1431.83C909.761 1425.68 908.887 1419.26 905.812 1414.02L736.682 1125.64C733.313 1119.9 727.628 1116.11 721.129 1115.28L436.168 1078.76Z"
        stroke="url(#paint41_linear_1_20)" stroke-opacity="0.2" stroke-width="4" />
    <path opacity="0.913043"
        d="M426.328 1089.45C418.649 1088.05 410.636 1090.92 405.17 1097.02L205.998 1319.27C201.386 1324.42 199.103 1331.3 199.753 1338.09L231.788 1672.69C232.383 1678.91 235.384 1684.5 240.116 1688.21L481.224 1877.18C487.032 1881.74 494.77 1882.93 501.909 1880.38L766.214 1785.81C773.353 1783.26 778.976 1777.28 781.245 1769.84L875.431 1460.9C877.28 1454.84 876.723 1448.37 873.887 1442.96L721.194 1151.52C718.095 1145.61 712.576 1141.52 706.097 1140.34L426.328 1089.45Z"
        stroke="url(#paint42_linear_1_20)" stroke-opacity="0.2" stroke-width="4" />
    <path opacity="0.927536"
        d="M404.031 1101.46C396.445 1099.66 388.328 1102.06 382.573 1107.79L174.683 1314.76C169.795 1319.63 167.157 1326.36 167.469 1333.18L182.542 1662.37C182.828 1668.63 185.578 1674.4 190.168 1678.37L419.061 1876.23C424.65 1881.06 432.317 1882.67 439.569 1880.53L705.551 1802.05C712.802 1799.91 718.712 1794.3 721.359 1787.04L829.741 1489.66C831.914 1483.7 831.677 1477.19 829.083 1471.61L692.66 1178.22C689.835 1172.15 684.492 1167.77 678.049 1166.24L404.031 1101.46Z"
        stroke="url(#paint43_linear_1_20)" stroke-opacity="0.2" stroke-width="4" />
    <path opacity="0.942029"
        d="M393.209 1114.74C385.742 1112.56 377.557 1114.47 371.541 1119.81L155.823 1311.13C150.672 1315.7 147.685 1322.27 147.658 1329.1L146.376 1651.84C146.351 1658.13 148.845 1664.07 153.286 1668.29L369.781 1874.17C375.14 1879.26 382.709 1881.28 390.045 1879.56L656.937 1817.09C664.273 1815.38 670.444 1810.15 673.457 1803.09L795.189 1518.05C797.686 1512.2 797.771 1505.66 795.424 1499.92L675.042 1205.66C672.497 1199.44 667.34 1194.77 660.946 1192.91L393.209 1114.74Z"
        stroke="url(#paint44_linear_1_20)" stroke-opacity="0.2" stroke-width="4" />
    <path opacity="0.956522"
        d="M381.797 1129.24C374.475 1126.68 366.261 1128.12 360.013 1133.04L137.366 1308.4C131.966 1312.65 128.637 1319.04 128.27 1325.86L111.293 1641.15C110.953 1647.47 113.187 1653.57 117.474 1658.05L321.437 1871.07C326.552 1876.41 333.999 1878.82 341.39 1877.53L608.439 1830.96C615.829 1829.67 622.235 1824.84 625.6 1818.02L759.801 1546.03C762.622 1540.31 763.033 1533.74 760.937 1527.85L656.311 1233.77C654.048 1227.41 649.089 1222.46 642.759 1220.25L381.797 1129.24Z"
        stroke="url(#paint45_linear_1_20)" stroke-opacity="0.2" stroke-width="4" />
    <path opacity="0.971014"
        d="M369.737 1144.89C362.585 1141.98 354.38 1142.93 347.934 1147.42L119.261 1306.56C113.628 1310.48 109.964 1316.68 109.256 1323.47L77.2961 1630.39C76.637 1636.72 78.6039 1642.99 82.7322 1647.72L274.076 1867C278.937 1872.57 286.236 1875.38 293.652 1874.52L560.119 1843.68C567.535 1842.82 574.145 1838.41 577.849 1831.85L723.607 1573.55C726.752 1567.97 727.492 1561.39 725.652 1555.35L636.441 1262.46C634.465 1255.97 629.713 1250.76 623.462 1248.21L369.737 1144.89Z"
        stroke="url(#paint46_linear_1_20)" stroke-opacity="0.2" stroke-width="4" />
    <path opacity="0.985507"
        d="M356.972 1161.64C350.015 1158.39 341.857 1158.86 335.246 1162.9L101.456 1305.64C95.6053 1309.21 91.6161 1315.19 90.5673 1321.95L44.3803 1619.61C43.3973 1625.94 45.091 1632.38 49.0545 1637.36L227.74 1862.06C232.338 1867.84 239.463 1871.01 246.874 1870.59L512.039 1855.28C519.45 1854.86 526.234 1850.88 530.258 1844.6L686.635 1600.57C690.104 1595.15 691.178 1588.56 689.599 1582.37L615.409 1291.66C613.724 1285.06 609.19 1279.57 603.032 1276.7L356.972 1161.64Z"
        stroke="url(#paint47_linear_1_20)" stroke-opacity="0.2" stroke-width="4" />
    <path
        d="M343.45 1179.42C336.711 1175.85 328.638 1175.85 321.899 1179.42L83.8984 1305.63C77.8481 1308.84 73.5423 1314.57 72.1523 1321.28L12.5383 1608.88C11.2261 1615.22 12.6392 1621.81 16.4317 1627.04L182.467 1856.3C186.792 1862.28 193.72 1865.81 201.095 1865.81H464.254C471.629 1865.81 478.557 1862.28 482.882 1856.3L648.917 1627.04C652.71 1621.81 654.123 1615.22 652.81 1608.88L593.196 1321.28C591.807 1314.57 587.501 1308.84 581.45 1305.63L343.45 1179.42Z"
        stroke="url(#paint48_linear_1_20)" stroke-opacity="0.2" stroke-width="4" />
    <defs>
        <linearGradient id="paint0_linear_1_20" x1="1590.45" y1="1682.37" x2="2534.42" y2="502.447"
            gradientUnits="userSpaceOnUse">
            <stop stop-color="#FF1CF7" />
            <stop offset="1" stop-color="#00B0FF" stop-opacity="0.1" />
        </linearGradient>
        <linearGradient id="paint1_linear_1_20" x1="1523.77" y1="1661.74" x2="2513.7" y2="551.563"
            gradientUnits="userSpaceOnUse">
            <stop stop-color="#FF1CF7" />
            <stop offset="1" stop-color="#00B0FF" stop-opacity="0.1" />
        </linearGradient>
        <linearGradient id="paint2_linear_1_20" x1="1470.85" y1="1640.06" x2="2501.57" y2="600.487"
            gradientUnits="userSpaceOnUse">
            <stop stop-color="#FF1CF7" />
            <stop offset="1" stop-color="#00B0FF" stop-opacity="0.1" />
        </linearGradient>
        <linearGradient id="paint3_linear_1_20" x1="1407.74" y1="1617.43" x2="2474.2" y2="648.935"
            gradientUnits="userSpaceOnUse">
            <stop stop-color="#FF1CF7" />
            <stop offset="1" stop-color="#00B0FF" stop-opacity="0.1" />
        </linearGradient>
        <linearGradient id="paint4_linear_1_20" x1="1358.45" y1="1594" x2="2455.84" y2="696.671"
            gradientUnits="userSpaceOnUse">
            <stop stop-color="#FF1CF7" />
            <stop offset="1" stop-color="#00B0FF" stop-opacity="0.1" />
        </linearGradient>
        <linearGradient id="paint5_linear_1_20" x1="1299.02" y1="1569.86" x2="2422.71" y2="743.5"
            gradientUnits="userSpaceOnUse">
            <stop stop-color="#FF1CF7" />
            <stop offset="1" stop-color="#00B0FF" stop-opacity="0.1" />
        </linearGradient>
        <linearGradient id="paint6_linear_1_20" x1="1253.45" y1="1545.16" x2="2399.07" y2="789.271"
            gradientUnits="userSpaceOnUse">
            <stop stop-color="#FF1CF7" />
            <stop offset="1" stop-color="#00B0FF" stop-opacity="0.1" />
        </linearGradient>
        <linearGradient id="paint7_linear_1_20" x1="1209.75" y1="1520" x2="2373.16" y2="833.874"
            gradientUnits="userSpaceOnUse">
            <stop stop-color="#FF1CF7" />
            <stop offset="1" stop-color="#00B0FF" stop-opacity="0.1" />
        </linearGradient>
        <linearGradient id="paint8_linear_1_20" x1="1155.93" y1="1494.5" x2="2333.21" y2="877.238"
            gradientUnits="userSpaceOnUse">
            <stop stop-color="#FF1CF7" />
            <stop offset="1" stop-color="#00B0FF" stop-opacity="0.1" />
        </linearGradient>
        <linearGradient id="paint9_linear_1_20" x1="1115.98" y1="1468.8" x2="2303.47" y2="919.325"
            gradientUnits="userSpaceOnUse">
            <stop stop-color="#FF1CF7" />
            <stop offset="1" stop-color="#00B0FF" stop-opacity="0.1" />
        </linearGradient>
        <linearGradient id="paint10_linear_1_20" x1="1077.89" y1="1443" x2="2272.14" y2="960.13"
            gradientUnits="userSpaceOnUse">
            <stop stop-color="#FF1CF7" />
            <stop offset="1" stop-color="#00B0FF" stop-opacity="0.1" />
        </linearGradient>
        <linearGradient id="paint11_linear_1_20" x1="1041.65" y1="1417.22" x2="2239.44" y2="999.674"
            gradientUnits="userSpaceOnUse">
            <stop stop-color="#FF1CF7" />
            <stop offset="1" stop-color="#00B0FF" stop-opacity="0.1" />
        </linearGradient>
        <linearGradient id="paint12_linear_1_20" x1="995.228" y1="1391.59" x2="2193.53" y2="1038"
            gradientUnits="userSpaceOnUse">
            <stop stop-color="#FF1CF7" />
            <stop offset="1" stop-color="#00B0FF" stop-opacity="0.1" />
        </linearGradient>
        <linearGradient id="paint13_linear_1_20" x1="962.6" y1="1366.19" x2="2158.59" y2="1075.17"
            gradientUnits="userSpaceOnUse">
            <stop stop-color="#FF1CF7" />
            <stop offset="1" stop-color="#00B0FF" stop-opacity="0.1" />
        </linearGradient>
        <linearGradient id="paint14_linear_1_20" x1="931.732" y1="1341.16" x2="2122.75" y2="1111.25"
            gradientUnits="userSpaceOnUse">
            <stop stop-color="#FF1CF7" />
            <stop offset="1" stop-color="#00B0FF" stop-opacity="0.1" />
        </linearGradient>
        <linearGradient id="paint15_linear_1_20" x1="902.585" y1="1316.59" x2="2086.14" y2="1146.35"
            gradientUnits="userSpaceOnUse">
            <stop stop-color="#FF1CF7" />
            <stop offset="1" stop-color="#00B0FF" stop-opacity="0.1" />
        </linearGradient>
        <linearGradient id="paint16_linear_1_20" x1="875.116" y1="1292.58" x2="2048.84" y2="1180.55"
            gradientUnits="userSpaceOnUse">
            <stop stop-color="#FF1CF7" />
            <stop offset="1" stop-color="#00B0FF" stop-opacity="0.1" />
        </linearGradient>
        <linearGradient id="paint17_linear_1_20" x1="849.273" y1="1269.24" x2="2010.93" y2="1213.95"
            gradientUnits="userSpaceOnUse">
            <stop stop-color="#FF1CF7" />
            <stop offset="1" stop-color="#00B0FF" stop-opacity="0.1" />
        </linearGradient>
        <linearGradient id="paint18_linear_1_20" x1="825.005" y1="1246.65" x2="1972.46" y2="1246.65"
            gradientUnits="userSpaceOnUse">
            <stop stop-color="#FF1CF7" />
            <stop offset="1" stop-color="#00B0FF" stop-opacity="0.1" />
        </linearGradient>
        <linearGradient id="paint19_linear_1_20" x1="790.253" y1="1224.91" x2="1921.46" y2="1278.74"
            gradientUnits="userSpaceOnUse">
            <stop stop-color="#FF1CF7" />
            <stop offset="1" stop-color="#00B0FF" stop-opacity="0.1" />
        </linearGradient>
        <linearGradient id="paint20_linear_1_20" x1="768.954" y1="1204.1" x2="1881.94" y2="1310.33"
            gradientUnits="userSpaceOnUse">
            <stop stop-color="#FF1CF7" />
            <stop offset="1" stop-color="#00B0FF" stop-opacity="0.1" />
        </linearGradient>
        <linearGradient id="paint21_linear_1_20" x1="737.042" y1="1184.3" x2="1829.9" y2="1341.49"
            gradientUnits="userSpaceOnUse">
            <stop stop-color="#FF1CF7" />
            <stop offset="1" stop-color="#00B0FF" stop-opacity="0.1" />
        </linearGradient>
        <linearGradient id="paint22_linear_1_20" x1="718.447" y1="1165.59" x2="1789.32" y2="1372.3"
            gradientUnits="userSpaceOnUse">
            <stop stop-color="#FF1CF7" />
            <stop offset="1" stop-color="#00B0FF" stop-opacity="0.1" />
        </linearGradient>
        <linearGradient id="paint23_linear_1_20" x1="689.096" y1="1148.03" x2="1736.15" y2="1402.82"
            gradientUnits="userSpaceOnUse">
            <stop stop-color="#FF1CF7" />
            <stop offset="1" stop-color="#00B0FF" stop-opacity="0.1" />
        </linearGradient>
        <linearGradient id="paint24_linear_1_20" x1="660.913" y1="1131.7" x2="1682.34" y2="1433.09"
            gradientUnits="userSpaceOnUse">
            <stop stop-color="#FF1CF7" />
            <stop offset="1" stop-color="#00B0FF" stop-opacity="0.1" />
        </linearGradient>
        <linearGradient id="paint25_linear_1_20" x1="645.819" y1="1116.64" x2="1639.85" y2="1463.17"
            gradientUnits="userSpaceOnUse">
            <stop stop-color="#FF1CF7" />
            <stop offset="1" stop-color="#00B0FF" stop-opacity="0.1" />
        </linearGradient>
        <linearGradient id="paint26_linear_1_20" x1="619.733" y1="1102.92" x2="1584.59" y2="1493.04"
            gradientUnits="userSpaceOnUse">
            <stop stop-color="#FF1CF7" />
            <stop offset="1" stop-color="#00B0FF" stop-opacity="0.1" />
        </linearGradient>
        <linearGradient id="paint27_linear_1_20" x1="606.572" y1="1090.58" x2="1540.5" y2="1522.73"
            gradientUnits="userSpaceOnUse">
            <stop stop-color="#FF1CF7" />
            <stop offset="1" stop-color="#00B0FF" stop-opacity="0.1" />
        </linearGradient>
        <linearGradient id="paint28_linear_1_20" x1="594.251" y1="1079.66" x2="1495.5" y2="1552.2"
            gradientUnits="userSpaceOnUse">
            <stop stop-color="#FF1CF7" />
            <stop offset="1" stop-color="#00B0FF" stop-opacity="0.1" />
        </linearGradient>
        <linearGradient id="paint29_linear_1_20" x1="570.684" y1="1070.2" x2="1437.51" y2="1581.41"
            gradientUnits="userSpaceOnUse">
            <stop stop-color="#FF1CF7" />
            <stop offset="1" stop-color="#00B0FF" stop-opacity="0.1" />
        </linearGradient>
        <linearGradient id="paint30_linear_1_20" x1="559.784" y1="1062.22" x2="1390.46" y2="1610.3"
            gradientUnits="userSpaceOnUse">
            <stop stop-color="#FF1CF7" />
            <stop offset="1" stop-color="#00B0FF" stop-opacity="0.1" />
        </linearGradient>
        <linearGradient id="paint31_linear_1_20" x1="537.463" y1="1055.75" x2="1330.28" y2="1638.79"
            gradientUnits="userSpaceOnUse">
            <stop stop-color="#FF1CF7" />
            <stop offset="1" stop-color="#00B0FF" stop-opacity="0.1" />
        </linearGradient>
        <linearGradient id="paint32_linear_1_20" x1="527.633" y1="1050.81" x2="1280.93" y2="1666.78"
            gradientUnits="userSpaceOnUse">
            <stop stop-color="#FF1CF7" />
            <stop offset="1" stop-color="#00B0FF" stop-opacity="0.1" />
        </linearGradient>
        <linearGradient id="paint33_linear_1_20" x1="518.205" y1="1047.41" x2="1230.36" y2="1694.14"
            gradientUnits="userSpaceOnUse">
            <stop stop-color="#FF1CF7" />
            <stop offset="1" stop-color="#00B0FF" stop-opacity="0.1" />
        </linearGradient>
        <linearGradient id="paint34_linear_1_20" x1="497.092" y1="1045.55" x2="1166.55" y2="1720.75"
            gradientUnits="userSpaceOnUse">
            <stop stop-color="#FF1CF7" />
            <stop offset="1" stop-color="#00B0FF" stop-opacity="0.1" />
        </linearGradient>
        <linearGradient id="paint35_linear_1_20" x1="488.206" y1="1045.23" x2="1113.49" y2="1746.46"
            gradientUnits="userSpaceOnUse">
            <stop stop-color="#FF1CF7" />
            <stop offset="1" stop-color="#00B0FF" stop-opacity="0.1" />
        </linearGradient>
        <linearGradient id="paint36_linear_1_20" x1="479.462" y1="1046.45" x2="1059.2" y2="1771.09"
            gradientUnits="userSpaceOnUse">
            <stop stop-color="#FF1CF7" />
            <stop offset="1" stop-color="#00B0FF" stop-opacity="0.1" />
        </linearGradient>
        <linearGradient id="paint37_linear_1_20" x1="470.774" y1="1049.2" x2="1003.74" y2="1794.5"
            gradientUnits="userSpaceOnUse">
            <stop stop-color="#FF1CF7" />
            <stop offset="1" stop-color="#00B0FF" stop-opacity="0.1" />
        </linearGradient>
        <linearGradient id="paint38_linear_1_20" x1="450.058" y1="1053.45" x2="935.172" y2="1816.51"
            gradientUnits="userSpaceOnUse">
            <stop stop-color="#FF1CF7" />
            <stop offset="1" stop-color="#00B0FF" stop-opacity="0.1" />
        </linearGradient>
        <linearGradient id="paint39_linear_1_20" x1="441.233" y1="1059.19" x2="877.608" y2="1836.95"
            gradientUnits="userSpaceOnUse">
            <stop stop-color="#FF1CF7" />
            <stop offset="1" stop-color="#00B0FF" stop-opacity="0.1" />
        </linearGradient>
        <linearGradient id="paint40_linear_1_20" x1="432.22" y1="1066.38" x2="819.179" y2="1855.67"
            gradientUnits="userSpaceOnUse">
            <stop stop-color="#FF1CF7" />
            <stop offset="1" stop-color="#00B0FF" stop-opacity="0.1" />
        </linearGradient>
        <linearGradient id="paint41_linear_1_20" x1="422.94" y1="1075" x2="760.047" y2="1872.52"
            gradientUnits="userSpaceOnUse">
            <stop stop-color="#FF1CF7" />
            <stop offset="1" stop-color="#00B0FF" stop-opacity="0.1" />
        </linearGradient>
        <linearGradient id="paint42_linear_1_20" x1="413.32" y1="1085" x2="700.402" y2="1887.39"
            gradientUnits="userSpaceOnUse">
            <stop stop-color="#FF1CF7" />
            <stop offset="1" stop-color="#00B0FF" stop-opacity="0.1" />
        </linearGradient>
        <linearGradient id="paint43_linear_1_20" x1="391.288" y1="1096.35" x2="628.457" y2="1900.17"
            gradientUnits="userSpaceOnUse">
            <stop stop-color="#FF1CF7" />
            <stop offset="1" stop-color="#00B0FF" stop-opacity="0.1" />
        </linearGradient>
        <linearGradient id="paint44_linear_1_20" x1="380.776" y1="1108.99" x2="568.442" y2="1910.79"
            gradientUnits="userSpaceOnUse">
            <stop stop-color="#FF1CF7" />
            <stop offset="1" stop-color="#00B0FF" stop-opacity="0.1" />
        </linearGradient>
        <linearGradient id="paint45_linear_1_20" x1="369.718" y1="1122.88" x2="508.604" y2="1919.22"
            gradientUnits="userSpaceOnUse">
            <stop stop-color="#FF1CF7" />
            <stop offset="1" stop-color="#00B0FF" stop-opacity="0.1" />
        </linearGradient>
        <linearGradient id="paint46_linear_1_20" x1="358.053" y1="1137.96" x2="449.195" y2="1925.46"
            gradientUnits="userSpaceOnUse">
            <stop stop-color="#FF1CF7" />
            <stop offset="1" stop-color="#00B0FF" stop-opacity="0.1" />
        </linearGradient>
        <linearGradient id="paint47_linear_1_20" x1="345.724" y1="1154.16" x2="390.47" y2="1929.55"
            gradientUnits="userSpaceOnUse">
            <stop stop-color="#FF1CF7" />
            <stop offset="1" stop-color="#00B0FF" stop-opacity="0.1" />
        </linearGradient>
        <linearGradient id="paint48_linear_1_20" x1="332.674" y1="1171.44" x2="332.674" y2="1931.57"
            gradientUnits="userSpaceOnUse">
            <stop stop-color="#FF1CF7" />
            <stop offset="1" stop-color="#00B0FF" stop-opacity="0.1" />
        </linearGradient>
    </defs>
</svg>