<svg width="177" height="54" viewBox="0 0 177 54" fill="none" xmlns="http://www.w3.org/2000/svg">
    <rect x="1.5" y="1.5" width="173.2" height="51" rx="13.5" stroke="url(#paint0_linear_58_78)" stroke-opacity="0.4"
        stroke-width="3" />
    <path
        d="M28.9259 23.0398H30.922V37.9911H28.9259V23.0398ZM33.2887 24.4737H35.2848V34.4281H33.2887V24.4737ZM26.8209 21.3167V19.2255H45.3791V21.3167H26.8209Z"
        fill="#EEEEEE" />
    <path d="M28.926 38V35.9089H44.0116V38H28.926ZM37.6515 24.4736H39.6476V34.4281H37.6515V24.4736Z" fill="#EEEEEE" />
    <path
        d="M42.0143 23.0398H44.0104V37.9911H42.0143V23.0398ZM36.4307 17.3171C36.9406 17.3171 37.4296 17.5292 37.7903 17.9068C38.151 18.2844 38.3537 18.7966 38.3541 19.3308H39.6113C39.595 18.4585 39.2529 17.6277 38.6583 17.0168C38.0637 16.4059 37.2641 16.0638 36.4313 16.0638C35.5984 16.0638 34.7989 16.4059 34.2043 17.0168C33.6097 17.6277 33.2675 18.4585 33.2512 19.3308H34.5085C34.5088 18.7969 34.7114 18.2849 35.0718 17.9073C35.4322 17.5297 35.921 17.3174 36.4307 17.3171Z"
        fill="#EEEEEE" />
    <path
        d="M61.768 27.44H67.96V28.288H61.768V27.44ZM60.072 19.584H69.448V20.512H60.072V19.584ZM60.472 21.52H69.064V22.384H60.472V21.52ZM59.544 23.488H69.976V24.416H59.544V23.488ZM61.768 29.504H68.008V30.384H61.768V29.504ZM61.016 25.328H68.072V26.272H62.136V33.264H61.016V25.328ZM67.592 25.328H68.728V31.936C68.728 32.56 68.616 32.88 68.168 33.04C67.704 33.216 66.984 33.216 65.864 33.216C65.816 32.928 65.656 32.48 65.496 32.192C66.312 32.208 67.08 32.208 67.288 32.192C67.512 32.192 67.592 32.128 67.592 31.92V25.328ZM64.072 18.56H65.256V24.048H64.072V18.56ZM55.992 19.568L56.664 18.704C57.672 19.136 58.92 19.856 59.544 20.416L58.856 21.392C58.248 20.816 57.016 20.048 55.992 19.568ZM55.192 23.92L55.848 23.024C56.872 23.408 58.168 24.096 58.808 24.624L58.12 25.616C57.496 25.072 56.232 24.352 55.192 23.92ZM55.672 32.288C56.488 31.056 57.656 28.928 58.52 27.104L59.432 27.84C58.648 29.536 57.592 31.568 56.712 33.056L55.672 32.288ZM77.896 23.248H84.088V24.256H77.896V23.248ZM76.824 26.256H85.352V27.296H76.824V26.256ZM80.92 19.696C79.992 21.2 78.28 23.008 76.456 24.128C76.328 23.856 76.04 23.424 75.832 23.184C77.672 22.112 79.464 20.24 80.328 18.608H81.416C82.568 20.368 84.44 22.128 86.152 23.056C85.912 23.312 85.64 23.744 85.48 24.064C83.8 23.024 81.96 21.264 80.92 19.696ZM80.36 23.744H81.512V31.92C81.512 32.56 81.384 32.896 80.952 33.072C80.552 33.264 79.896 33.296 78.872 33.296C78.824 32.976 78.648 32.48 78.472 32.16C79.224 32.192 79.896 32.176 80.104 32.176C80.312 32.176 80.36 32.112 80.36 31.92V23.744ZM77.864 28.16L78.92 28.432C78.392 29.888 77.496 31.344 76.584 32.288C76.392 32.096 75.976 31.744 75.72 31.568C76.616 30.72 77.4 29.456 77.864 28.16ZM82.696 28.576L83.608 28.144C84.472 29.232 85.448 30.736 85.848 31.68L84.856 32.192C84.472 31.248 83.528 29.712 82.696 28.576ZM71.88 19.264H75.656V20.352H72.968V33.296H71.88V19.264ZM75.288 19.264H75.496L75.688 19.216L76.456 19.68C75.992 20.992 75.4 22.64 74.856 23.92C76.04 25.248 76.296 26.368 76.296 27.36C76.296 28.224 76.12 28.896 75.672 29.216C75.448 29.36 75.16 29.456 74.84 29.504C74.52 29.536 74.12 29.536 73.752 29.52C73.736 29.232 73.64 28.768 73.464 28.464C73.832 28.496 74.136 28.512 74.392 28.48C74.584 28.48 74.76 28.432 74.888 28.336C75.144 28.16 75.224 27.728 75.224 27.248C75.224 26.384 74.936 25.296 73.784 24.048C74.36 22.592 74.952 20.688 75.288 19.584V19.264ZM87.576 19.456H94.472V20.56H87.576V19.456ZM95.608 24.016H102.04V25.168H95.608V24.016ZM99.08 24.768H100.264V33.296H99.08V24.768ZM95.144 20.144L96.648 20.544C96.632 20.656 96.552 20.72 96.328 20.752V24.416C96.328 27.008 95.992 30.672 93.592 33.248C93.416 32.992 92.984 32.592 92.696 32.448C94.92 30.08 95.144 26.864 95.144 24.416V20.144ZM88.168 22.224H89.304V26.544C89.304 28.592 89.112 31.424 87.88 33.312C87.688 33.088 87.192 32.72 86.936 32.576C88.056 30.848 88.168 28.384 88.168 26.544V22.224ZM100.664 18.752L101.72 19.664C100.136 20.432 97.816 21.088 95.816 21.552C95.752 21.28 95.56 20.848 95.4 20.576C97.304 20.128 99.464 19.44 100.664 18.752ZM88.824 22.224H94.072V27.216H88.824V26.128H92.904V23.328H88.824V22.224ZM103.608 20.64H117.624V21.776H103.608V20.64ZM107.512 26.352H115.032V27.392H107.512V26.352ZM106.664 23.632H114.84V24.704H107.848V33.28H106.664V23.632ZM114.568 23.632H115.736V31.792C115.736 32.496 115.592 32.864 115.048 33.056C114.536 33.248 113.64 33.248 112.264 33.248C112.216 32.912 112.04 32.416 111.864 32.08C112.936 32.128 113.912 32.112 114.2 32.112C114.472 32.096 114.568 32.016 114.568 31.776V23.632ZM108.84 18.56L110.056 18.848C108.968 22.368 107.048 25.92 103.992 28.064C103.832 27.792 103.464 27.376 103.224 27.136C106.088 25.168 107.976 21.776 108.84 18.56ZM107.512 29.056H115.032V30.096H107.512V29.056ZM120.584 19.696L121.4 18.96C122.28 19.712 123.4 20.752 123.944 21.424L123.08 22.288C122.568 21.584 121.464 20.48 120.584 19.696ZM121.784 32.96L121.576 31.824L121.912 31.312L124.744 29.392C124.824 29.712 125 30.192 125.112 30.432C122.44 32.336 122.024 32.656 121.784 32.96ZM119.336 23.6H122.728V24.752H119.336V23.6ZM121.784 32.976C121.656 32.72 121.32 32.272 121.112 32.08C121.4 31.856 121.88 31.312 121.88 30.528V23.6H123.08V31.408C123.08 31.408 121.784 32.496 121.784 32.976ZM126.12 24.944H132.312V26.096H126.12V24.944ZM125.608 24.944H126.824V31.104C126.824 31.744 127.016 31.888 128.04 31.888C128.536 31.888 130.952 31.888 131.576 31.888C132.568 31.888 132.728 31.488 132.824 29.216C133.112 29.44 133.64 29.632 133.992 29.712C133.8 32.32 133.4 33.056 131.656 33.056C131.24 33.056 128.36 33.056 127.976 33.056C126.168 33.056 125.608 32.656 125.608 31.104V24.944ZM125.304 19.696H132.856V26.912H131.656V20.88H125.304V19.696ZM135.656 24.624H149.64V25.696H135.656V24.624ZM141.96 25.168H143.192V31.984C143.192 32.672 143.016 32.976 142.504 33.136C142.008 33.312 141.208 33.328 139.96 33.312C139.88 33.008 139.704 32.576 139.544 32.256C140.472 32.304 141.368 32.304 141.64 32.288C141.896 32.272 141.96 32.192 141.96 31.968V25.168ZM143.048 25.856C144.2 28.608 146.648 30.752 149.848 31.616C149.576 31.856 149.224 32.32 149.048 32.656C145.784 31.616 143.384 29.28 142.072 26.144L143.048 25.856ZM147.544 26.08L148.568 26.832C147.496 27.76 146.088 28.768 145.016 29.424L144.184 28.752C145.256 28.08 146.696 26.944 147.544 26.08ZM136.744 26.928L137.544 26.192C138.552 26.752 139.864 27.584 140.504 28.208L139.656 29.04C139.048 28.416 137.784 27.52 136.744 26.928ZM135.688 31.136C137.32 30.528 139.944 29.472 142.376 28.464L142.616 29.488C140.424 30.448 138.072 31.472 136.328 32.208L135.688 31.136ZM137.224 22.048H146.808V23.152H137.224V22.048ZM146.456 19.456H146.584L146.808 19.408L147.752 19.472C147.704 21.184 147.56 23.504 147.4 25.248L146.168 25.184C146.312 23.408 146.424 20.896 146.456 19.616V19.456ZM136.744 19.456H146.792V20.576H136.744V19.456Z"
        fill="white" />
    <defs>
        <linearGradient id="paint0_linear_58_78" x1="114.547" y1="-48.0508" x2="183.288" y2="96.5604"
            gradientUnits="userSpaceOnUse">
            <stop stop-color="white" />
            <stop offset="1" stop-color="white" stop-opacity="0" />
        </linearGradient>
    </defs>
</svg>