<svg width="146" height="54" viewBox="0 0 146 54" fill="none" xmlns="http://www.w3.org/2000/svg">
    <rect x="1.5" y="1.5" width="142.2" height="51" rx="13.5" stroke="url(#paint0_linear_1_9)" stroke-opacity="0.4"
        stroke-width="3" />
    <path
        d="M46.3127 28.4389C46.3127 29.316 46.162 30.1657 45.8879 30.9468C44.8875 28.0278 42.2289 25.9447 39.0769 25.9447V27.1918C39.0769 27.6715 38.8165 28.0963 38.4054 28.3156C38.2409 28.3978 38.0491 28.4526 37.8709 28.4526C37.6105 28.4526 37.3639 28.3704 37.1446 28.2059L32.3207 24.451C32.0192 24.218 31.841 23.848 31.841 23.4506C31.841 23.0532 32.0192 22.6831 32.3207 22.4502L37.1446 18.6815C37.3502 18.517 37.6105 18.4348 37.8709 18.4348C38.0491 18.4348 38.2409 18.4759 38.4054 18.5719C38.8165 18.7774 39.0769 19.216 39.0769 19.6956V20.9427C43.0648 20.929 46.3127 24.3002 46.3127 28.4389Z"
        fill="white" />
    <path
        d="M43.592 28.2617C43.1123 28.2617 42.7149 28.6591 42.7149 29.1387V30.194C42.7149 32.044 42.6464 33.5241 39.2066 33.5241H32.19C28.6406 33.5241 28.6817 31.9481 28.6817 30.0158V25.6304C28.435 22.8759 29.737 22.2729 31.3129 22.1496H31.3678C31.8474 22.1496 32.2448 21.7521 32.2448 21.2725C32.2448 20.7928 31.8474 20.3817 31.3678 20.3817H31.3129V20.368H30.4359C28.5036 20.368 26.9276 21.944 26.9276 23.8763V31.7699C26.9276 33.7022 28.5036 35.2782 30.4359 35.2782H40.9471C42.8794 35.2782 44.4553 33.7022 44.4553 31.77V29.1387C44.4691 28.6591 44.0716 28.2617 43.592 28.2617Z"
        fill="white" />
    <path
        d="M56.576 27.344H70.704V28.48H56.576V27.344ZM65.952 26.112H67.184V31.856C67.184 32.56 66.992 32.896 66.416 33.056C65.84 33.232 64.88 33.232 63.328 33.232C63.28 32.912 63.072 32.464 62.912 32.144C64.096 32.192 65.248 32.176 65.552 32.16C65.856 32.16 65.952 32.08 65.952 31.84V26.112ZM58.976 29.088L59.808 28.384C60.816 29.2 61.952 30.368 62.48 31.184L61.584 31.984C61.104 31.152 59.968 29.936 58.976 29.088ZM57.76 19.696H59.008V23.872C59.008 24.544 59.328 24.704 61.104 24.704C61.936 24.704 66.368 24.704 67.488 24.704C68.8 24.704 69.024 24.48 69.168 23.296C69.472 23.472 69.968 23.616 70.32 23.68C70.112 25.312 69.6 25.712 67.584 25.712C66.928 25.712 61.792 25.712 61.184 25.712C58.544 25.712 57.76 25.376 57.76 23.888V19.696ZM58.176 21.936H67.632V20.256H57.76V19.2H68.8V23.008H58.176V21.936ZM75.232 19.536H79.76V20.752H75.232V19.536ZM79.152 19.536H80.384C80.384 22.4 80.736 28.48 87.056 32.224C86.784 32.432 86.304 32.944 86.08 33.232C79.68 29.36 79.152 22.544 79.152 19.536ZM78.704 22.672L80.064 22.928C78.912 27.808 76.8 31.184 73.264 33.264C73.04 33.008 72.496 32.512 72.176 32.288C75.728 30.432 77.728 27.2 78.704 22.672ZM90.496 18.608L91.584 18.928C90.96 20.688 89.92 22.448 88.768 23.6C88.672 23.36 88.352 22.752 88.144 22.48C89.12 21.536 90 20.112 90.496 18.608ZM90.176 20.368H94V21.52H89.936L90.176 20.368ZM90.704 33.168L90.528 32.064L90.928 31.584L94.128 29.744C94.176 30.064 94.304 30.528 94.416 30.768C91.408 32.576 90.976 32.864 90.704 33.168ZM89.36 23.248H93.776V24.336H89.36V23.248ZM88.592 26.512H94.208V27.6H88.592V26.512ZM94.704 22.416L102.064 21.312L102.256 22.368L94.912 23.488L94.704 22.416ZM94.384 25.856L102.496 24.336L102.704 25.392L94.576 26.928L94.384 25.856ZM97.024 18.544H98.176C98.128 26.096 99.36 32.08 101.408 32.096C101.84 32.096 102 31.712 102.064 30.304C102.304 30.544 102.688 30.8 102.96 30.912C102.736 32.688 102.368 33.216 101.296 33.216C98.144 33.216 97.088 26.368 97.024 18.544ZM98.8 19.52L99.488 18.864C100.288 19.216 101.296 19.792 101.808 20.224L101.104 20.976C100.592 20.528 99.6 19.904 98.8 19.52ZM101.792 26.432L102.784 26.88C101.136 29.616 98.224 31.776 94.928 33.008C94.752 32.72 94.464 32.304 94.192 32.048C97.392 30.96 100.256 28.944 101.792 26.432ZM90.704 33.168C90.592 32.912 90.288 32.496 90.112 32.304C90.384 32.112 90.928 31.616 90.928 30.88V23.584H92.016V31.744C92.016 31.744 90.704 32.72 90.704 33.168ZM108.112 18.48L109.36 18.832C108.352 21.328 106.784 23.696 105.152 25.232C104.912 25.008 104.4 24.576 104.08 24.384C105.744 22.992 107.216 20.768 108.112 18.48ZM107.92 20.4H116.944V21.536H107.344L107.92 20.4ZM116.56 20.4H117.76C117.76 20.4 117.76 20.8 117.76 20.976C117.6 26.368 117.44 28.272 116.976 28.864C116.688 29.232 116.368 29.36 115.888 29.408C115.44 29.456 114.64 29.44 113.776 29.408C113.76 29.056 113.632 28.576 113.44 28.256C114.256 28.336 115.024 28.352 115.328 28.352C115.584 28.352 115.76 28.304 115.888 28.128C116.256 27.712 116.416 25.872 116.56 20.64V20.4ZM107.072 27.056H112.048V24.32H106.736V23.248H113.248V28.128H107.072V27.056ZM106.496 27.056H107.696V31.168C107.696 31.824 108.016 31.968 109.744 31.968C110.56 31.968 114.704 31.968 115.776 31.968C117.232 31.968 117.472 31.648 117.616 29.808C117.92 29.984 118.432 30.176 118.768 30.24C118.528 32.544 118.064 33.104 115.792 33.104C115.2 33.104 110.368 33.104 109.808 33.104C107.248 33.104 106.496 32.752 106.496 31.168V27.056Z"
        fill="white" />
    <defs>
        <linearGradient id="paint0_linear_1_9" x1="94.3943" y1="-48.0508" x2="171.127" y2="84.9739"
            gradientUnits="userSpaceOnUse">
            <stop stop-color="white" />
            <stop offset="1" stop-color="white" stop-opacity="0" />
        </linearGradient>
    </defs>
</svg>