<svg width="15" height="15" viewBox="0 0 15 15" fill="none" xmlns="http://www.w3.org/2000/svg">
    <path
        d="M8.90529 6.12094C8.81477 6.03045 8.71828 5.94887 8.61885 5.87323L8.61867 5.8734C8.51634 5.77497 8.37738 5.71436 8.22418 5.71436C7.90976 5.71436 7.65488 5.96924 7.65488 6.28365C7.65488 6.42277 7.70486 6.5502 7.78777 6.64909C7.78778 6.64911 7.7878 6.64914 7.78783 6.64915C7.82766 6.69665 7.87504 6.73761 7.92824 6.77003C7.98192 6.81429 8.03461 6.85789 8.08388 6.90716L8.13081 6.9541C8.72084 7.5434 8.5447 8.55869 7.95467 9.14874L5.43688 11.6658C4.84687 12.2551 3.88764 12.2551 3.29759 11.6658L3.25029 11.6184C2.66023 11.0284 2.66023 10.0685 3.25029 9.47989L4.36262 8.36793C4.50534 8.25465 4.59696 8.07981 4.59696 7.88347C4.59696 7.54198 4.32012 7.26514 3.97863 7.26514C3.84976 7.26514 3.73014 7.3046 3.63109 7.37204C3.63077 7.37138 3.63044 7.37075 3.63011 7.37007L3.61826 7.38117C3.57447 7.41264 3.53488 7.44956 3.50069 7.49118L2.34473 8.57284C1.25814 9.66019 1.25814 11.4386 2.34473 12.5244L2.39167 12.5713C3.47827 13.6572 5.25587 13.6572 6.34246 12.5713L8.8595 10.0535C9.9446 8.96698 10.0366 7.25297 8.95152 6.16712L8.90529 6.12094Z"
        fill="#5D5D5D" />
    <path
        d="M12.5335 2.42878L12.4865 2.38184C11.3999 1.29524 9.62234 1.29524 8.53574 2.38184L6.0187 4.89961C4.93211 5.98621 4.87227 7.55532 5.95886 8.64262L6.00505 8.6881C6.05439 8.73743 6.10562 8.78394 6.1579 8.82855C6.19575 8.87082 6.24021 8.90701 6.28963 8.93563C6.29 8.93593 6.29039 8.93624 6.29077 8.93654L6.29093 8.93639C6.36971 8.98169 6.46098 9.00774 6.55838 9.00774C6.85521 9.00774 7.09583 8.76709 7.09583 8.4703C7.09583 8.38652 7.07664 8.30722 7.04243 8.23653C6.97138 8.07699 6.83838 7.97987 6.74639 7.88787L6.70019 7.84242C6.11017 7.2524 6.33422 6.39521 6.92424 5.80519L9.44276 3.28814C10.0313 2.6981 10.9909 2.6981 11.5809 3.28814L11.6279 3.33433C12.2179 3.92439 12.2179 4.8847 11.6279 5.47399L10.5192 6.58344C10.3684 6.69518 10.2706 6.87443 10.2706 7.07654C10.2706 7.41527 10.5452 7.68988 10.8839 7.68988C11.0018 7.68988 11.1119 7.65654 11.2054 7.59889C11.2061 7.60009 11.2067 7.6012 11.2074 7.60241L11.2246 7.58654C11.2776 7.55107 11.3246 7.50753 11.3642 7.45775L12.5327 6.37957C13.62 5.29299 13.6201 3.51536 12.5335 2.42878Z"
        fill="#5D5D5D" />
</svg>