<svg width="3559" height="2258" viewBox="0 0 3559 2258" fill="none" xmlns="http://www.w3.org/2000/svg">
<path opacity="0.0144928" d="M3016.13 1918.47L3255 1444.63C3257.74 1439.19 3258.45 1432.96 3256.98 1427.2L3068.95 690.114C3067.83 685.715 3065.49 681.822 3062.22 678.916L2586.33 255.093C2579.9 249.37 2570.75 248.208 2562.8 252.106L2169.01 445.167C2161.06 449.066 2155.72 457.332 2155.28 466.42L2122.87 1139.45C2122.65 1144.06 2123.71 1148.58 2125.93 1152.44L2497.56 1799.52C2500.46 1804.57 2505.14 1808.17 2510.64 1809.56L2990.27 1931.15C3000.35 1933.71 3011.1 1928.44 3016.13 1918.47Z" stroke="url(#paint0_linear_37_117)" stroke-opacity="0.2" stroke-width="4"/>
<path opacity="0.0289855" d="M2943.39 1939.39L3203.22 1483.77C3206.22 1478.5 3207.23 1472.34 3206.05 1466.53L3054.97 726.134C3054.07 721.705 3051.93 717.711 3048.82 714.642L2596.98 268.413C2590.83 262.34 2581.71 260.671 2573.54 264.124L2173.65 433.153C2165.49 436.606 2159.72 444.565 2158.84 453.61L2094.22 1118.15C2093.77 1122.72 2094.61 1127.26 2096.63 1131.22L2434.27 1792.76C2436.92 1797.94 2441.42 1801.78 2446.85 1803.48L2916.81 1950.63C2926.8 1953.76 2937.87 1949.08 2943.39 1939.39Z" stroke="url(#paint1_linear_37_117)" stroke-opacity="0.2" stroke-width="4"/>
<path opacity="0.0434783" d="M2870.53 1957.76L3150.26 1521.44C3153.51 1516.37 3154.82 1510.29 3153.92 1504.45L3039.6 762.972C3038.91 758.522 3036.98 754.435 3034.03 751.209L2607.06 284.177C2601.2 277.771 2592.14 275.594 2583.78 278.585L2178.97 423.42C2170.61 426.41 2164.45 434.034 2163.13 443.009L2067 1097.2C2066.33 1101.72 2066.95 1106.28 2068.77 1110.32L2372.08 1784.18C2374.47 1789.49 2378.77 1793.56 2384.11 1795.56L2843.31 1967.5C2853.18 1971.19 2864.52 1967.13 2870.53 1957.76Z" stroke="url(#paint2_linear_37_117)" stroke-opacity="0.2" stroke-width="4"/>
<path opacity="0.057971" d="M2797.69 1973.59L3096.19 1557.6C3099.68 1552.73 3101.28 1546.75 3100.67 1540.89L3022.79 800.542C3022.32 796.077 3020.59 791.903 3017.8 788.528L2616.44 302.329C2610.89 295.606 2601.92 292.924 2593.4 295.438L2184.84 415.985C2176.32 418.499 2169.77 425.76 2168.01 434.637L2041.19 1076.68C2040.31 1081.14 2040.71 1085.7 2042.33 1089.83L2311.05 1773.87C2313.18 1779.28 2317.29 1783.58 2322.53 1785.87L2769.92 1981.78C2779.63 1986.03 2791.21 1982.62 2797.69 1973.59Z" stroke="url(#paint3_linear_37_117)" stroke-opacity="0.2" stroke-width="4"/>
<path opacity="0.0724638" d="M2724.97 1986.91L3041.09 1592.2C3044.82 1587.54 3046.71 1581.68 3046.38 1575.8L3004.52 838.753C3004.27 834.281 3002.74 830.027 3000.12 826.507L2625.01 322.803C2619.79 315.784 2610.94 312.6 2602.28 314.625L2191.14 410.856C2182.48 412.882 2175.57 419.754 2173.39 428.508L2016.77 1056.67C2015.68 1061.06 2015.85 1065.63 2017.27 1069.83L2251.28 1761.9C2253.14 1767.42 2257.04 1771.93 2262.17 1774.51L2696.76 1993.51C2706.28 1998.31 2718.04 1995.55 2724.97 1986.91Z" stroke="url(#paint4_linear_37_117)" stroke-opacity="0.2" stroke-width="4"/>
<path opacity="0.0869565" d="M2652.49 1997.76L2985.06 1625.19C2989.02 1620.76 2991.19 1615.01 2991.14 1609.13L2984.78 877.513C2984.74 873.04 2983.41 868.712 2980.96 865.054L2632.67 345.53C2627.78 338.233 2619.08 334.554 2610.32 336.081L2197.75 408.036C2188.99 409.563 2181.75 416.023 2179.14 424.628L1993.69 1037.24C1992.39 1041.55 1992.34 1046.12 1993.56 1050.39L2192.82 1748.37C2194.42 1753.97 2198.1 1758.69 2203.11 1761.56L2623.96 2002.73C2633.25 2008.06 2645.15 2005.98 2652.49 1997.76Z" stroke="url(#paint5_linear_37_117)" stroke-opacity="0.2" stroke-width="4"/>
<path opacity="0.101449" d="M2580.39 2006.16L2928.18 1656.53C2932.35 1652.33 2934.8 1646.73 2935.04 1640.86L2963.53 916.732C2963.71 912.264 2962.59 907.867 2960.3 904.075L2639.31 370.434C2634.76 362.88 2626.24 358.715 2617.41 359.737L2204.55 407.519C2195.72 408.541 2188.17 414.566 2185.15 422.996L1971.93 1018.47C1970.41 1022.7 1970.15 1027.25 1971.16 1031.58L2135.76 1733.36C2137.09 1739.05 2140.55 1743.97 2145.42 1747.12L2551.63 2009.49C2560.66 2015.33 2572.66 2013.94 2580.39 2006.16Z" stroke="url(#paint6_linear_37_117)" stroke-opacity="0.2" stroke-width="4"/>
<path opacity="0.115942" d="M2508.77 2012.18L2870.53 1686.18C2874.91 1682.24 2877.64 1676.78 2878.15 1670.93L2940.77 956.317C2941.16 951.86 2940.25 947.399 2938.14 943.478L2644.82 397.433C2640.63 389.642 2632.32 385.003 2623.45 385.515L2211.43 409.292C2202.57 409.804 2194.74 415.374 2191.32 423.604L1951.43 1000.42C1949.71 1004.56 1949.23 1009.1 1950.04 1013.49L2080.15 1716.98C2081.22 1722.74 2084.44 1727.85 2089.17 1731.27L2479.9 2013.85C2488.64 2020.17 2500.67 2019.48 2508.77 2012.18Z" stroke="url(#paint7_linear_37_117)" stroke-opacity="0.2" stroke-width="4"/>
<path opacity="0.130435" d="M2437.74 2015.86L2812.21 1714.12C2816.79 1710.44 2819.78 1705.14 2820.57 1699.32L2916.49 996.174C2917.09 991.734 2916.39 987.214 2914.46 983.169L2649.11 426.438C2645.3 418.433 2637.22 413.334 2628.35 413.334H2218.28C2209.41 413.334 2201.33 418.433 2197.52 426.438L1932.16 983.169C1930.24 987.214 1929.53 991.734 1930.14 996.174L2026.06 1699.32C2026.85 1705.14 2029.84 1710.44 2034.42 1714.12L2408.88 2015.86C2417.31 2022.64 2429.32 2022.64 2437.74 2015.86Z" stroke="url(#paint8_linear_37_117)" stroke-opacity="0.2" stroke-width="4"/>
<path opacity="0.144928" d="M2367.42 2017.25L2753.3 1740.33C2758.06 1736.92 2761.31 1731.8 2762.38 1726.02L2890.68 1036.21C2891.5 1031.79 2891.01 1027.22 2889.26 1023.06L2652.1 457.358C2648.66 449.16 2640.85 443.618 2632.01 443.108L2224.98 419.618C2216.14 419.108 2207.84 423.721 2203.64 431.478L1914.08 966.779C1911.94 970.72 1911.02 975.212 1911.42 979.699L1973.53 1680.49C1974.05 1686.36 1976.8 1691.83 1981.21 1695.78L2338.68 2015.59C2346.76 2022.81 2358.71 2023.5 2367.42 2017.25Z" stroke="url(#paint9_linear_37_117)" stroke-opacity="0.2" stroke-width="4"/>
<path opacity="0.15942" d="M2297.91 2016.42L2693.89 1764.79C2698.82 1761.66 2702.33 1756.72 2703.68 1750.99L2863.35 1076.34C2864.39 1071.95 2864.11 1067.33 2862.55 1063.05L2653.69 490.094C2650.64 481.726 2643.12 475.76 2634.34 474.744L2231.42 428.112C2222.64 427.096 2214.16 431.21 2209.59 438.696L1897.12 951.311C1894.78 955.14 1893.64 959.598 1893.83 964.127L1922.62 1660.59C1922.86 1666.5 1925.36 1672.14 1929.59 1676.34L2269.41 2013.12C2277.11 2020.75 2288.94 2022.12 2297.91 2016.42Z" stroke="url(#paint10_linear_37_117)" stroke-opacity="0.2" stroke-width="4"/>
<path opacity="0.173913" d="M2229.31 2013.43L2634.07 1787.48C2639.16 1784.64 2642.92 1779.89 2644.55 1774.23L2834.5 1116.45C2835.75 1112.1 2835.69 1107.44 2834.32 1103.05L2653.81 524.543C2651.15 516.03 2643.95 509.66 2635.27 508.146L2237.5 438.773C2228.81 437.258 2220.18 440.865 2215.26 448.058L1881.24 936.823C1878.7 940.533 1877.34 944.95 1877.31 949.516L1873.36 1639.73C1873.33 1645.67 1875.57 1651.47 1879.61 1655.9L2201.16 2008.52C2208.46 2016.53 2220.12 2018.56 2229.31 2013.43Z" stroke="url(#paint11_linear_37_117)" stroke-opacity="0.2" stroke-width="4"/>
<path opacity="0.188406" d="M2161.72 2008.37L2573.93 1808.41C2579.17 1805.86 2583.17 1801.32 2585.08 1795.73L2804.14 1156.48C2805.61 1152.17 2805.77 1147.46 2804.6 1142.97L2652.39 560.601C2650.13 551.965 2643.27 545.216 2634.71 543.212L2243.12 451.557C2234.56 449.554 2225.8 452.646 2220.54 459.525L1866.38 923.37C1863.65 926.953 1862.06 931.323 1861.81 935.919L1825.8 1618.02C1825.49 1623.98 1827.46 1629.92 1831.31 1634.59L2134.02 2001.89C2140.9 2010.24 2152.35 2012.92 2161.72 2008.37Z" stroke="url(#paint12_linear_37_117)" stroke-opacity="0.2" stroke-width="4"/>
<path opacity="0.202899" d="M2095.23 2001.32L2513.55 1827.55C2518.93 1825.32 2523.16 1821 2525.36 1815.49L2772.28 1196.31C2773.97 1192.05 2774.36 1187.32 2773.38 1182.72L2649.35 598.156C2647.5 589.422 2641 582.319 2632.6 579.839L2248.17 466.414C2239.76 463.934 2230.91 466.508 2225.34 473.052L1852.49 911.006C1849.56 914.452 1847.74 918.767 1847.28 923.389L1779.96 1595.56C1779.37 1601.54 1781.07 1607.61 1784.71 1612.51L2068.09 1993.31C2074.53 2001.97 2085.72 2005.27 2095.23 2001.32Z" stroke="url(#paint13_linear_37_117)" stroke-opacity="0.2" stroke-width="4"/>
<path opacity="0.217391" d="M2017.93 1992.35L2441.04 1844.94C2446.54 1843.02 2451 1838.92 2453.47 1833.52L2726.94 1235.87C2728.86 1231.67 2729.48 1226.91 2728.71 1222.21L2632.64 637.097C2631.2 628.288 2625.08 620.858 2616.86 617.917L2240.57 483.284C2232.35 480.343 2223.43 482.397 2217.56 488.587L1827.51 899.778C1824.38 903.078 1822.34 907.329 1821.65 911.97L1723.88 1572.48C1722.99 1578.45 1724.41 1584.65 1727.84 1589.76L1991.45 1982.87C1997.44 1991.8 2008.32 1995.69 2017.93 1992.35Z" stroke="url(#paint14_linear_37_117)" stroke-opacity="0.2" stroke-width="4"/>
<path opacity="0.231884" d="M1941.91 1981.55L2368.46 1860.56C2374.07 1858.97 2378.75 1855.11 2381.5 1849.82L2680.15 1275.06C2682.3 1270.93 2683.15 1266.15 2682.59 1261.36L2614.21 677.306C2613.17 668.448 2607.46 660.719 2599.45 657.333L2232.22 502.107C2224.2 498.721 2215.26 500.257 2209.11 506.075L1803.38 889.729C1800.05 892.874 1797.78 897.053 1796.87 901.706L1669.55 1548.89C1668.38 1554.84 1669.52 1561.16 1672.72 1566.47L1916.18 1970.67C1921.7 1979.84 1932.24 1984.29 1941.91 1981.55Z" stroke="url(#paint15_linear_37_117)" stroke-opacity="0.2" stroke-width="4"/>
<path opacity="0.246377" d="M1867.25 1969.03L2295.91 1874.43C2301.61 1873.17 2306.5 1869.57 2309.53 1864.4L2631.94 1313.81C2634.31 1309.75 2635.4 1304.96 2635.06 1300.09L2593.99 718.665C2593.37 709.782 2588.07 701.785 2580.3 697.973L2223.03 522.817C2215.25 519.005 2206.32 520.025 2199.9 525.456L1780.03 880.902C1776.51 883.88 1774.01 887.978 1772.86 892.634L1617.01 1524.89C1615.55 1530.82 1616.39 1537.24 1619.36 1542.74L1842.34 1956.81C1847.39 1966.18 1857.56 1971.16 1867.25 1969.03Z" stroke="url(#paint16_linear_37_117)" stroke-opacity="0.2" stroke-width="4"/>
<path opacity="0.26087" d="M1806.02 1954.87L2235.47 1886.58C2241.25 1885.66 2246.34 1882.32 2249.64 1877.3L2594.33 1352.02C2596.93 1348.05 2598.27 1343.26 2598.14 1338.31L2583.97 761.055C2583.75 752.17 2578.89 743.934 2571.37 739.717L2224.93 545.341C2217.41 541.124 2208.5 541.634 2201.85 546.661L1769.4 873.332C1765.7 876.132 1762.96 880.138 1761.57 884.79L1578.25 1500.6C1576.5 1506.5 1577.04 1513 1579.76 1518.69L1782.01 1941.4C1786.57 1950.93 1796.34 1956.41 1806.02 1954.87Z" stroke="url(#paint17_linear_37_117)" stroke-opacity="0.2" stroke-width="4"/>
<path opacity="0.275362" d="M1734.29 1939.18L2163.22 1897.03C2169.06 1896.45 2174.35 1893.39 2177.92 1888.52L2543.36 1389.61C2546.19 1385.74 2547.78 1380.96 2547.88 1375.94L2560.08 804.352C2560.27 795.491 2555.85 787.047 2548.62 782.447L2213.83 569.606C2206.59 565.005 2197.74 565.012 2190.87 569.623L1747.43 867.052C1743.54 869.662 1740.56 873.566 1738.94 878.203L1529.28 1476.15C1527.23 1481.99 1527.47 1488.56 1529.94 1494.42L1711.25 1924.54C1715.32 1934.19 1724.66 1940.13 1734.29 1939.18Z" stroke="url(#paint18_linear_37_117)" stroke-opacity="0.2" stroke-width="4"/>
<path opacity="0.289855" d="M1664.12 1922.08L2091.25 1905.8C2097.13 1905.58 2102.6 1902.8 2106.44 1898.1L2491.07 1426.51C2494.14 1422.76 2495.97 1417.99 2496.32 1412.91L2534.32 848.434C2534.92 839.621 2530.94 831 2524.01 826.039L2201.66 595.533C2194.73 590.571 2185.96 590.083 2178.89 594.265L1726.04 862.09C1721.97 864.499 1718.76 868.287 1716.89 872.9L1482.09 1451.63C1479.75 1457.4 1479.67 1464.04 1481.88 1470.05L1642.11 1906.33C1645.69 1916.08 1654.58 1922.44 1664.12 1922.08Z" stroke="url(#paint19_linear_37_117)" stroke-opacity="0.2" stroke-width="4"/>
<path opacity="0.304348" d="M1607.58 1903.66L2031.63 1912.94C2037.54 1913.07 2043.18 1910.59 2047.28 1906.07L2449.51 1462.65C2452.81 1459.01 2454.9 1454.27 2455.49 1449.15L2518.66 893.177C2519.65 884.435 2516.14 875.669 2509.51 870.37L2200.36 623.039C2193.74 617.74 2185.08 616.768 2177.84 620.51L1717.17 858.471C1712.92 860.666 1709.48 864.326 1707.36 868.902L1448.67 1427.16C1446.03 1432.85 1445.64 1439.53 1447.58 1445.68L1586.63 1886.9C1589.72 1896.71 1598.15 1903.45 1607.58 1903.66Z" stroke="url(#paint20_linear_37_117)" stroke-opacity="0.2" stroke-width="4"/>
<path opacity="0.318841" d="M1540.7 1884.04L1960.43 1918.47C1966.35 1918.96 1972.15 1916.79 1976.51 1912.48L2394.72 1497.93C2398.25 1494.44 2400.61 1489.74 2401.44 1484.58L2489.07 938.456C2490.46 929.808 2487.41 920.927 2481.11 915.315L2185.86 652.039C2179.57 646.427 2171.04 644.982 2163.65 648.275L1696.75 856.215C1692.34 858.183 1688.66 861.701 1686.28 866.227L1405 1402.86C1402.07 1408.45 1401.35 1415.15 1403.01 1421.43L1520.87 1866.36C1523.48 1876.19 1531.42 1883.27 1540.7 1884.04Z" stroke="url(#paint21_linear_37_117)" stroke-opacity="0.2" stroke-width="4"/>
<path opacity="0.333333" d="M1487.54 1863.33L1901.74 1922.45C1907.65 1923.29 1913.6 1921.45 1918.2 1917.35L2350.75 1532.31C2354.51 1528.97 2357.14 1524.33 2358.22 1519.13L2469.57 984.148C2471.34 975.616 2468.75 966.651 2462.8 960.749L2182.1 682.446C2176.15 676.544 2167.78 674.64 2160.26 677.476L1688.72 855.338C1684.14 857.065 1680.23 860.426 1677.6 864.889L1375.06 1378.83C1371.83 1384.3 1370.79 1391.01 1372.17 1397.4L1468.86 1844.81C1470.99 1854.64 1478.44 1862.03 1487.54 1863.33Z" stroke="url(#paint22_linear_37_117)" stroke-opacity="0.2" stroke-width="4"/>
<path opacity="0.347826" d="M1424.14 1841.66L1831.61 1924.91C1837.5 1926.11 1843.58 1924.6 1848.42 1920.74L2293.66 1565.71C2297.65 1562.53 2300.54 1557.97 2301.88 1552.76L2436.13 1030.13C2438.28 1021.74 2436.15 1012.72 2430.55 1006.55L2165.03 714.167C2159.43 708 2151.23 705.65 2143.61 708.024L1668.99 855.851C1664.26 857.325 1660.12 860.512 1657.23 864.898L1334.81 1355.17C1331.3 1360.51 1329.93 1367.21 1331.03 1373.69L1406.63 1822.37C1408.28 1832.17 1415.24 1839.84 1424.14 1841.66Z" stroke="url(#paint23_linear_37_117)" stroke-opacity="0.2" stroke-width="4"/>
<path opacity="0.362319" d="M1374.53 1819.13L1774.12 1925.9C1779.96 1927.47 1786.16 1926.3 1791.24 1922.68L2247.51 1598.06C2251.72 1595.07 2254.88 1590.6 2256.48 1585.39L2412.76 1076.28C2415.29 1068.04 2413.61 1059 2408.37 1052.59L2158.59 747.112C2153.35 740.703 2145.35 737.921 2137.65 739.828L1661.5 857.761C1656.63 858.968 1652.26 861.966 1649.12 866.259L1308.24 1332C1304.44 1337.19 1302.74 1343.85 1303.54 1350.41L1358.2 1799.17C1359.39 1808.91 1365.85 1816.81 1374.53 1819.13Z" stroke="url(#paint24_linear_37_117)" stroke-opacity="0.2" stroke-width="4"/>
<path opacity="0.376812" d="M1314.73 1795.88L1705.33 1925.49C1711.11 1927.41 1717.4 1926.6 1722.71 1923.25L2188.35 1629.32C2192.78 1626.53 2196.21 1622.17 2198.08 1616.97L2375.49 1122.47C2378.38 1114.41 2377.15 1105.37 2372.28 1098.74L2138.75 781.185C2133.87 774.557 2126.09 771.359 2118.34 772.796L1642.19 861.071C1637.19 861.999 1632.59 864.791 1629.2 868.974L1271.29 1309.41C1267.21 1314.42 1265.18 1321.03 1265.68 1327.65L1299.61 1775.32C1300.34 1784.97 1306.3 1793.08 1314.73 1795.88Z" stroke="url(#paint25_linear_37_117)" stroke-opacity="0.2" stroke-width="4"/>
<path opacity="0.391304" d="M1268.76 1772.02L1649.3 1923.73C1655 1926 1661.37 1925.54 1666.89 1922.48L2140.26 1659.43C2144.89 1656.85 2148.59 1652.61 2150.72 1647.45L2348.31 1168.58C2351.55 1160.73 2350.77 1151.71 2346.27 1144.89L2129.46 816.289C2124.96 809.466 2117.41 805.866 2109.63 806.833L1634.98 865.78C1629.85 866.416 1625.05 868.985 1621.4 873.04L1247.92 1287.49C1243.57 1292.32 1241.21 1298.86 1241.41 1305.52L1254.84 1750.93C1255.13 1760.48 1260.6 1768.77 1268.76 1772.02Z" stroke="url(#paint26_linear_37_117)" stroke-opacity="0.2" stroke-width="4"/>
<path opacity="0.405797" d="M1224.63 1747.67L1594.09 1920.66C1599.69 1923.28 1606.12 1923.2 1611.83 1920.44L2091.28 1688.33C2096.12 1685.99 2100.09 1681.9 2102.49 1676.78L2319.26 1214.51C2322.84 1206.87 2322.51 1197.91 2318.38 1190.91L2118.7 852.326C2114.57 845.33 2107.27 841.344 2099.48 841.84L1627.8 871.882C1622.57 872.215 1617.56 874.543 1613.66 878.452L1226.08 1266.35C1221.47 1270.97 1218.78 1277.41 1218.68 1284.1L1211.93 1726.13C1211.78 1735.55 1216.76 1743.98 1224.63 1747.67Z" stroke="url(#paint27_linear_37_117)" stroke-opacity="0.2" stroke-width="4"/>
<path opacity="0.42029" d="M1170.36 1722.95L1527.75 1916.37C1533.23 1919.34 1539.7 1919.63 1545.6 1917.18L2029.51 1715.99C2034.53 1713.9 2038.76 1709.97 2041.43 1704.92L2276.36 1260.12C2280.27 1252.73 2280.37 1243.83 2276.62 1236.69L2094.43 889.198C2090.68 882.05 2083.63 877.695 2075.87 877.722L1608.58 879.367C1603.27 879.386 1598.06 881.456 1593.91 885.201L1193.73 1246.07C1188.85 1250.47 1185.84 1256.79 1185.44 1263.49L1158.86 1701.02C1158.3 1710.3 1162.78 1718.85 1170.36 1722.95Z" stroke="url(#paint28_linear_37_117)" stroke-opacity="0.2" stroke-width="4"/>
<path opacity="0.434783" d="M1129.93 1697.99L1474.34 1910.92C1479.67 1914.21 1486.17 1914.89 1492.23 1912.77L1978.99 1742.36C1984.19 1740.54 1988.68 1736.79 1991.61 1731.82L2243.66 1305.32C2247.88 1298.18 2248.4 1289.38 2245.03 1282.1L2080.63 926.806C2077.26 919.526 2070.49 914.817 2062.76 914.379L1601.26 888.221C1595.88 887.916 1590.5 889.711 1586.1 893.273L1174.79 1226.74C1169.67 1230.89 1166.34 1237.08 1165.63 1243.77L1119.63 1675.74C1118.66 1684.85 1122.67 1693.5 1129.93 1697.99Z" stroke="url(#paint29_linear_37_117)" stroke-opacity="0.2" stroke-width="4"/>
<path opacity="0.449275" d="M1091.34 1672.9L1421.88 1904.36C1427.06 1907.98 1433.56 1909.04 1439.76 1907.26L1927.81 1767.4C1933.17 1765.86 1937.9 1762.33 1941.11 1757.46L2209.18 1349.99C2213.7 1343.12 2214.63 1334.43 2211.64 1327.04L2065.28 965.049C2062.29 957.657 2055.8 952.61 2048.14 951.712L1593.77 898.425C1588.34 897.788 1582.79 899.293 1578.17 902.652L1157.21 1208.44C1151.86 1212.33 1148.22 1218.36 1147.2 1225.02L1082.24 1650.38C1080.87 1659.31 1084.4 1668.04 1091.34 1672.9Z" stroke="url(#paint30_linear_37_117)" stroke-opacity="0.2" stroke-width="4"/>
<path opacity="0.463768" d="M1054.58 1647.8L1370.44 1896.77C1375.44 1900.72 1381.92 1902.16 1388.25 1900.74L1876.04 1791.09C1881.55 1789.85 1886.51 1786.54 1889.97 1781.8L2172.97 1394.02C2177.78 1387.43 2179.11 1378.89 2176.5 1371.4L2048.36 1003.83C2045.75 996.342 2039.57 990.974 2032 989.621L1586.05 909.957C1580.59 908.983 1574.89 910.181 1570.05 913.318L1140.92 1191.25C1135.35 1194.85 1131.41 1200.7 1130.09 1207.32L1046.66 1625.07C1044.91 1633.81 1047.97 1642.59 1054.58 1647.8Z" stroke="url(#paint31_linear_37_117)" stroke-opacity="0.2" stroke-width="4"/>
<path opacity="0.478261" d="M1007.62 1622.8L1308.04 1888.23C1312.85 1892.48 1319.29 1894.31 1325.72 1893.25L1811.75 1813.41C1817.39 1812.48 1822.57 1809.41 1826.29 1804.81L2123.09 1437.31C2128.16 1431.03 2129.89 1422.63 2127.66 1415.07L2017.88 1043.04C2015.65 1035.48 2009.78 1029.81 2002.31 1028.01L1566.03 922.792C1560.57 921.475 1554.73 922.352 1549.68 925.25L1113.85 1175.23C1108.08 1178.54 1103.85 1184.19 1102.23 1190.74L1000.87 1599.92C998.756 1608.45 1001.36 1617.27 1007.62 1622.8Z" stroke="url(#paint32_linear_37_117)" stroke-opacity="0.2" stroke-width="4"/>
<path opacity="0.492754" d="M974.443 1598.02L1258.72 1878.8C1263.32 1883.35 1269.7 1885.56 1276.21 1884.88L1759.02 1834.32C1764.76 1833.72 1770.16 1830.91 1774.12 1826.48L2083.58 1479.78C2088.92 1473.8 2091.02 1465.57 2089.17 1457.95L1997.83 1082.59C1995.98 1074.97 1990.42 1069.01 1983.08 1066.77L1557.65 936.9C1552.21 935.237 1546.26 935.781 1541.02 938.422L1099.94 1160.46C1093.98 1163.45 1089.47 1168.88 1087.55 1175.35L968.848 1575.03C966.379 1583.34 968.53 1592.18 974.443 1598.02Z" stroke="url(#paint33_linear_37_117)" stroke-opacity="0.2" stroke-width="4"/>
<path opacity="0.507246" d="M943.011 1573.57L1210.51 1868.56C1214.89 1873.39 1221.17 1875.98 1227.75 1875.68L1705.92 1853.81C1711.75 1853.55 1717.34 1851.03 1721.53 1846.77L2042.52 1521.31C2048.1 1515.65 2050.57 1507.61 2049.09 1499.95L1976.21 1122.38C1974.73 1114.72 1969.5 1108.48 1962.31 1105.81L1548.86 952.247C1543.46 950.238 1537.42 950.438 1532 952.804L1087.09 1146.99C1080.97 1149.66 1076.19 1154.85 1073.97 1161.22L938.56 1550.51C935.747 1558.6 937.455 1567.44 943.011 1573.57Z" stroke="url(#paint34_linear_37_117)" stroke-opacity="0.2" stroke-width="4"/>
<path opacity="0.521739" d="M913.287 1549.55L1163.44 1857.58C1167.58 1862.68 1173.75 1865.65 1180.37 1865.74L1652.53 1871.88C1658.42 1871.96 1664.18 1869.74 1668.6 1865.68L1999.96 1561.82C2005.76 1556.5 2008.59 1548.66 2007.49 1540.97L1953.02 1162.3C1951.91 1154.61 1947.02 1148.12 1940.01 1145.03L1539.6 968.797C1534.25 966.444 1528.15 966.29 1522.57 968.367L1075.24 1134.88C1068.97 1137.21 1063.94 1142.14 1061.43 1148.4L909.967 1526.47C906.822 1534.32 908.092 1543.16 913.287 1549.55Z" stroke="url(#paint35_linear_37_117)" stroke-opacity="0.2" stroke-width="4"/>
<path opacity="0.536232" d="M885.227 1526.07L1117.52 1845.94C1121.41 1851.29 1127.45 1854.64 1134.07 1855.11L1598.92 1888.52C1604.85 1888.95 1610.76 1887.04 1615.4 1883.2L1955.97 1601.24C1961.98 1596.26 1965.16 1588.63 1964.42 1580.93L1928.28 1202.27C1927.55 1194.57 1923 1187.83 1916.18 1184.34L1529.81 986.511C1524.55 983.817 1518.41 983.302 1512.69 985.077L1064.31 1124.18C1057.91 1126.16 1052.64 1130.82 1049.85 1136.94L883.025 1503C879.559 1510.61 880.4 1519.42 885.227 1526.07Z" stroke="url(#paint36_linear_37_117)" stroke-opacity="0.2" stroke-width="4"/>
<path opacity="0.550725" d="M858.782 1503.22L1072.78 1833.72C1076.4 1839.3 1082.28 1843.01 1088.9 1843.88L1545.17 1903.73C1551.12 1904.51 1557.16 1902.93 1561.99 1899.32L1910.62 1639.47C1916.83 1634.85 1920.34 1627.44 1919.98 1619.74L1902.01 1242.19C1901.64 1234.49 1897.45 1227.53 1890.83 1223.64L1519.45 1005.35C1514.29 1002.32 1508.14 1001.44 1502.3 1002.9L1054.2 1114.94C1047.71 1116.56 1042.21 1120.93 1039.14 1126.9L857.687 1480.21C853.909 1487.57 854.327 1496.34 858.782 1503.22Z" stroke="url(#paint37_linear_37_117)" stroke-opacity="0.2" stroke-width="4"/>
<path opacity="0.565217" d="M833.899 1481.11L1029.23 1820.98C1032.57 1826.79 1038.27 1830.85 1044.85 1832.11L1491.36 1917.5C1497.29 1918.64 1503.43 1917.39 1508.45 1914.04L1864 1676.45C1870.38 1672.19 1874.22 1665.01 1874.22 1657.33V1281.96C1874.22 1274.28 1870.38 1267.11 1864 1262.84L1508.45 1025.26C1503.43 1021.9 1497.29 1020.66 1491.36 1021.79L1044.85 1107.19C1038.27 1108.44 1032.57 1112.51 1029.23 1118.32L833.899 1458.19C829.82 1465.28 829.82 1474.01 833.899 1481.11Z" stroke="url(#paint38_linear_37_117)" stroke-opacity="0.2" stroke-width="4"/>
<path opacity="0.57971" d="M798.519 1459.81L974.879 1807.81C977.925 1813.82 983.429 1818.23 989.947 1819.87L1425.54 1929.86C1431.44 1931.35 1437.66 1930.45 1442.86 1927.36L1804.17 1712.11C1810.72 1708.21 1814.87 1701.28 1815.23 1693.63L1832.94 1321.5C1833.31 1313.85 1829.84 1306.48 1823.7 1301.85L1484.79 1046.2C1479.92 1042.52 1473.82 1040.91 1467.81 1041.72L1024.16 1100.96C1017.52 1101.85 1011.63 1105.6 1008.03 1111.22L799.604 1437.02C795.235 1443.85 794.822 1452.52 798.519 1459.81Z" stroke="url(#paint39_linear_37_117)" stroke-opacity="0.2" stroke-width="4"/>
<path opacity="0.594203" d="M776.58 1439.42L933.731 1794.29C936.476 1800.48 941.758 1805.22 948.191 1807.24L1371.81 1940.81C1377.64 1942.65 1383.92 1942.1 1389.26 1939.28L1755.23 1746.39C1761.92 1742.86 1766.37 1736.19 1767.1 1728.58L1802.21 1360.72C1802.94 1353.11 1799.85 1345.57 1793.96 1340.58L1472.42 1068.12C1467.72 1064.14 1461.68 1062.17 1455.63 1062.63L1016.05 1096.29C1009.38 1096.8 1003.31 1100.22 999.461 1105.66L778.74 1416.79C774.089 1423.34 773.269 1431.94 776.58 1439.42Z" stroke="url(#paint40_linear_37_117)" stroke-opacity="0.2" stroke-width="4"/>
<path opacity="0.608696" d="M744.015 1420.01L881.791 1780.48C884.224 1786.84 889.266 1791.89 895.589 1794.29L1306.21 1950.36C1311.96 1952.55 1318.28 1952.36 1323.75 1949.83L1693.25 1779.22C1700.08 1776.07 1704.82 1769.66 1705.9 1762.11L1758.05 1399.53C1759.14 1391.98 1756.43 1384.27 1750.82 1378.95L1447.29 1090.97C1442.79 1086.7 1436.84 1084.37 1430.76 1084.49L996.432 1093.19C989.743 1093.33 983.531 1096.41 979.432 1101.64L747.243 1397.58C742.319 1403.85 741.094 1412.37 744.015 1420.01Z" stroke="url(#paint41_linear_37_117)" stroke-opacity="0.2" stroke-width="4"/>
<path opacity="0.623188" d="M724.755 1401.67L843.057 1766.46C845.169 1772.97 849.952 1778.32 856.143 1781.09L1252.84 1958.55C1258.48 1961.07 1264.8 1961.24 1270.39 1959L1642.33 1810.56C1649.27 1807.79 1654.29 1801.66 1655.73 1794.19L1724.51 1437.84C1725.96 1430.37 1723.64 1422.52 1718.32 1416.88L1433.37 1114.69C1429.08 1110.14 1423.25 1107.46 1417.17 1107.24L989.218 1091.69C982.539 1091.45 976.195 1094.19 971.861 1099.19L729.041 1379.46C723.854 1385.45 722.228 1393.87 724.755 1401.67Z" stroke="url(#paint42_linear_37_117)" stroke-opacity="0.2" stroke-width="4"/>
<path opacity="0.637681" d="M694.726 1384.45L793.524 1752.31C795.307 1758.95 799.813 1764.57 805.85 1767.7L1187.74 1965.39C1193.25 1968.24 1199.55 1968.76 1205.24 1966.83L1578.54 1840.37C1585.58 1837.98 1590.87 1832.14 1592.67 1824.75L1677.63 1475.59C1679.43 1468.2 1677.51 1460.22 1672.49 1454.28L1406.63 1139.23C1402.57 1134.43 1396.88 1131.41 1390.82 1130.84L970.324 1091.79C963.676 1091.17 957.219 1093.56 952.66 1098.33L700.063 1362.51C694.621 1368.2 692.598 1376.52 694.726 1384.45Z" stroke="url(#paint43_linear_37_117)" stroke-opacity="0.2" stroke-width="4"/>
<path opacity="0.652174" d="M665.852 1368.42L745.181 1738.1C746.63 1744.84 750.842 1750.73 756.705 1754.2L1122.99 1970.91C1128.35 1974.08 1134.61 1974.95 1140.37 1973.34L1513.99 1868.6C1521.11 1866.6 1526.66 1861.05 1528.81 1853.76L1629.45 1512.69C1631.6 1505.4 1630.08 1497.31 1625.38 1491.09L1379.03 1164.53C1375.23 1159.49 1369.7 1156.15 1363.68 1155.24L951.662 1093.49C945.067 1092.51 938.516 1094.54 933.742 1099.06L672.233 1346.79C666.546 1352.18 664.127 1360.38 665.852 1368.42Z" stroke="url(#paint44_linear_37_117)" stroke-opacity="0.2" stroke-width="4"/>
<path opacity="0.666667" d="M650.054 1353.64L710.018 1723.89C711.125 1730.73 715.029 1736.86 720.698 1740.65L1070.65 1975.15C1075.83 1978.62 1082.03 1979.84 1087.85 1978.54L1460.77 1895.22C1467.95 1893.61 1473.75 1888.36 1476.25 1881.19L1592.03 1549.07C1594.53 1541.89 1593.41 1533.72 1589.05 1527.23L1362.55 1190.55C1359.01 1185.28 1353.67 1181.63 1347.71 1180.39L945.146 1096.81C938.625 1095.45 931.999 1097.13 927.022 1101.39L657.471 1332.36C651.547 1337.44 648.736 1345.5 650.054 1353.64Z" stroke="url(#paint45_linear_37_117)" stroke-opacity="0.2" stroke-width="4"/>
<path opacity="0.681159" d="M623.252 1340.16L664.018 1709.77C664.779 1716.67 668.362 1723.02 673.819 1727.13L1006.78 1978.15C1011.76 1981.9 1017.88 1983.46 1023.74 1982.48L1394.96 1920.21C1402.2 1918.99 1408.23 1914.06 1411.07 1907.01L1541.41 1584.66C1544.26 1577.62 1543.55 1569.38 1539.53 1562.65L1333.17 1217.21C1329.91 1211.74 1324.76 1207.79 1318.89 1206.22L926.693 1101.72C920.266 1100.01 913.584 1101.32 908.415 1105.32L631.697 1319.27C625.546 1324.03 622.346 1331.94 623.252 1340.16Z" stroke="url(#paint46_linear_37_117)" stroke-opacity="0.2" stroke-width="4"/>
<path opacity="0.695652" d="M609.363 1328.03L631.162 1695.79C631.574 1702.74 634.823 1709.29 640.05 1713.7L955.433 1979.93C960.208 1983.96 966.214 1985.85 972.107 1985.18L1340.66 1943.54C1347.93 1942.72 1354.19 1938.1 1357.38 1931.21L1501.66 1619.4C1504.85 1612.51 1504.56 1604.22 1500.89 1597.26L1314.86 1244.46C1311.88 1238.82 1306.96 1234.58 1301.19 1232.69L920.217 1108.22C913.903 1106.16 907.183 1107.11 901.834 1110.83L618.825 1307.57C612.458 1312 608.872 1319.75 609.363 1328.03Z" stroke="url(#paint47_linear_37_117)" stroke-opacity="0.2" stroke-width="4"/>
<path opacity="0.710145" d="M596.302 1317.28L599.427 1682.02C599.487 1689 602.392 1695.72 607.374 1700.42L904.669 1980.54C909.218 1984.83 915.101 1987.04 921.002 1986.69L1285.97 1965.2C1293.26 1964.77 1299.73 1960.49 1303.25 1953.76L1460.83 1653.23C1464.36 1646.5 1464.49 1638.19 1461.18 1631.03L1295.6 1272.24C1292.93 1266.44 1288.24 1261.94 1282.59 1259.74L913.637 1116.3C907.454 1113.89 900.712 1114.48 895.196 1117.91L606.772 1297.31C600.199 1301.39 596.231 1308.96 596.302 1317.28Z" stroke="url(#paint48_linear_37_117)" stroke-opacity="0.2" stroke-width="4"/>
<path opacity="0.724638" d="M571.985 1307.94L556.788 1668.53C556.493 1675.51 559.045 1682.39 563.77 1687.35L842.54 1980.03C846.85 1984.55 852.593 1987.08 858.485 1987.05L1218.98 1985.19C1226.26 1985.16 1232.93 1981.22 1236.8 1974.67L1406.98 1686.09C1410.85 1679.54 1411.4 1671.23 1408.47 1663.89L1263.39 1300.49C1261.02 1294.55 1256.58 1289.8 1251.07 1287.31L894.871 1125.92C888.835 1123.19 882.09 1123.42 876.418 1126.56L583.448 1288.51C576.682 1292.25 572.336 1299.62 571.985 1307.94Z" stroke="url(#paint49_linear_37_117)" stroke-opacity="0.2" stroke-width="4"/>
<path opacity="0.73913" d="M560.328 1300.06L527.217 1655.37C526.568 1662.34 528.759 1669.35 533.212 1674.55L793.098 1978.44C797.158 1983.19 802.744 1986.02 808.612 1986.3L1163.78 2003.51C1171.05 2003.86 1177.91 2000.27 1182.1 1993.92L1364.19 1717.94C1368.38 1711.59 1369.36 1703.3 1366.81 1695.79L1242.2 1329.16C1240.14 1323.1 1235.97 1318.12 1230.61 1315.34L887.841 1137.08C881.968 1134.02 875.235 1133.9 869.42 1136.73L572.767 1281.2C565.821 1284.59 561.103 1291.74 560.328 1300.06Z" stroke="url(#paint50_linear_37_117)" stroke-opacity="0.2" stroke-width="4"/>
<path opacity="0.753623" d="M537.242 1293.63L486.682 1642.61C485.679 1649.54 487.503 1656.66 491.674 1662.1L732.388 1975.83C736.187 1980.78 741.604 1983.9 747.434 1984.49L1096.46 2020.15C1103.7 2020.89 1110.73 2017.66 1115.24 2011.53L1308.51 1748.71C1313.02 1742.58 1314.43 1734.34 1312.27 1726.7L1208.03 1358.17C1206.29 1352.02 1202.39 1346.83 1197.2 1343.77L868.467 1149.73C862.772 1146.37 856.067 1145.88 850.122 1148.4L550.638 1275.42C543.525 1278.43 538.443 1285.34 537.242 1293.63Z" stroke="url(#paint51_linear_37_117)" stroke-opacity="0.2" stroke-width="4"/>
<path opacity="0.768116" d="M526.643 1288.69L459.15 1630.3C457.793 1637.17 459.246 1644.38 463.124 1650.03L684.457 1972.24C687.988 1977.38 693.223 1980.77 699.001 1981.68L1041.13 2035.13C1048.31 2036.26 1055.5 2033.4 1060.32 2027.5L1264.02 1778.39C1268.84 1772.49 1270.67 1764.32 1268.91 1756.57L1184.87 1387.48C1183.45 1381.25 1179.83 1375.87 1174.82 1372.54L860.677 1163.84C855.171 1160.18 848.51 1159.34 842.449 1161.55L540.972 1271.17C533.707 1273.81 528.269 1280.46 526.643 1288.69Z" stroke="url(#paint52_linear_37_117)" stroke-opacity="0.2" stroke-width="4"/>
<path opacity="0.782609" d="M516.445 1285.24L432.585 1618.5C430.877 1625.29 431.954 1632.56 435.532 1638.4L637.347 1967.73C640.602 1973.04 645.644 1976.7 651.359 1977.91L985.856 2048.47C992.975 2049.97 1000.31 2047.49 1005.43 2041.85L1218.79 1806.92C1223.91 1801.27 1226.16 1793.2 1224.8 1785.36L1160.72 1417.03C1159.62 1410.74 1156.3 1405.18 1151.47 1401.6L852.395 1179.37C847.093 1175.43 840.489 1174.24 834.324 1176.12L531.679 1268.47C524.278 1270.72 518.495 1277.09 516.445 1285.24Z" stroke="url(#paint53_linear_37_117)" stroke-opacity="0.2" stroke-width="4"/>
<path opacity="0.797101" d="M494.563 1283.28L394.947 1607.25C392.891 1613.94 393.59 1621.25 396.861 1627.27L579.098 1962.36C582.071 1967.82 586.911 1971.74 592.551 1973.24L918.74 2060.19C925.776 2062.07 933.235 2059.97 938.652 2054.6L1160.88 1834.27C1166.29 1828.9 1168.97 1820.95 1168.01 1813.05L1123.57 1446.75C1122.81 1440.41 1119.77 1434.7 1115.15 1430.87L831.553 1196.28C826.464 1192.07 819.932 1190.54 813.678 1192.09L510.668 1267.32C503.149 1269.18 497.035 1275.25 494.563 1283.28Z" stroke="url(#paint54_linear_37_117)" stroke-opacity="0.2" stroke-width="4"/>
<path opacity="0.811594" d="M484.912 1282.82L370.196 1596.61C367.796 1603.17 368.116 1610.5 371.072 1616.67L533.744 1956.18C536.43 1961.79 541.061 1965.95 546.615 1967.74L863.865 2070.32C870.803 2072.56 878.37 2070.87 884.066 2065.79L1114.37 1860.43C1120.07 1855.35 1123.15 1847.55 1122.6 1839.61L1097.44 1476.58C1097 1470.22 1094.26 1464.37 1089.84 1460.31L822.082 1214.51C817.216 1210.04 810.769 1208.18 804.438 1209.4L501.85 1267.71C494.232 1269.18 487.8 1274.92 484.912 1282.82Z" stroke="url(#paint55_linear_37_117)" stroke-opacity="0.2" stroke-width="4"/>
<path opacity="0.826087" d="M475.412 1283.84L346.29 1586.61C343.551 1593.03 343.492 1600.36 346.129 1606.67L489.322 1949.26C491.717 1954.99 496.131 1959.38 501.59 1961.47L809.318 2078.89C816.14 2081.5 823.797 2080.2 829.757 2075.43L1067.34 1885.36C1073.3 1880.59 1076.78 1872.97 1076.64 1865.02L1070.31 1506.47C1070.2 1500.11 1067.77 1494.13 1063.56 1489.85L811.919 1234.02C807.285 1229.31 800.936 1227.11 794.542 1227.99L493.138 1269.65C485.441 1270.72 478.71 1276.1 475.412 1283.84Z" stroke="url(#paint56_linear_37_117)" stroke-opacity="0.2" stroke-width="4"/>
<path opacity="0.84058" d="M465.981 1286.32L323.184 1577.3C320.112 1583.56 319.675 1590.86 321.988 1597.29L445.86 1941.66C447.961 1947.5 452.152 1952.11 457.507 1954.48L755.177 2085.95C761.868 2088.9 769.595 2088.01 775.803 2083.57L1019.85 1909.06C1026.06 1904.62 1029.94 1897.21 1030.21 1889.27L1042.21 1536.36C1042.43 1530.01 1040.31 1523.92 1036.31 1519.43L801.002 1254.75C796.608 1249.81 790.368 1247.28 783.926 1247.82L484.443 1273.12C476.689 1273.77 469.678 1278.79 465.981 1286.32Z" stroke="url(#paint57_linear_37_117)" stroke-opacity="0.2" stroke-width="4"/>
<path opacity="0.855072" d="M444.539 1290.26L288.832 1568.71C285.434 1574.79 284.621 1582.05 286.606 1588.59L391.385 1933.44C393.189 1939.38 397.151 1944.2 402.395 1946.85L689.522 2091.53C696.066 2094.83 703.842 2094.35 710.28 2090.26L959.985 1931.51C966.423 1927.41 970.686 1920.24 971.364 1912.35L1001.14 1566.2C1001.68 1559.87 999.871 1553.68 996.101 1548.99L777.271 1276.65C773.125 1271.49 767.007 1268.63 760.529 1268.83L463.681 1278.09C455.892 1278.34 448.625 1282.96 444.539 1290.26Z" stroke="url(#paint58_linear_37_117)" stroke-opacity="0.2" stroke-width="4"/>
<path opacity="0.869565" d="M435.011 1295.63L267.187 1560.89C263.471 1566.76 262.284 1573.96 263.939 1580.58L349.922 1924.67C351.427 1930.69 355.156 1935.72 360.281 1938.64L636.43 2095.69C642.812 2099.32 650.614 2099.26 657.261 2095.53L911.817 1952.7C918.465 1948.97 923.095 1942.06 924.179 1934.24L971.11 1595.92C971.981 1589.64 970.479 1583.37 966.937 1578.48L764.675 1299.64C760.782 1294.27 754.798 1291.1 748.299 1290.95L454.768 1284.55C446.969 1284.38 439.47 1288.58 435.011 1295.63Z" stroke="url(#paint59_linear_37_117)" stroke-opacity="0.2" stroke-width="4"/>
<path opacity="0.884058" d="M425.321 1302.4L246.199 1553.86C242.174 1559.51 240.618 1566.62 241.939 1573.31L309.49 1915.41C310.695 1921.51 314.185 1926.73 319.185 1929.91L583.971 2098.48C590.176 2102.43 597.981 2102.78 604.817 2099.43L863.418 1972.65C870.253 1969.3 875.234 1962.67 876.72 1954.95L940.137 1625.48C941.334 1619.26 940.146 1612.91 936.835 1607.84L751.161 1323.66C747.528 1318.1 741.687 1314.61 735.181 1314.13L445.623 1292.45C437.839 1291.87 430.137 1295.64 425.321 1302.4Z" stroke="url(#paint60_linear_37_117)" stroke-opacity="0.2" stroke-width="4"/>
<path opacity="0.898551" d="M415.398 1310.54L225.82 1547.64C221.496 1553.05 219.573 1560.05 220.56 1566.8L270.108 1905.73C271.008 1911.89 274.256 1917.3 279.125 1920.75L532.214 2099.95C538.227 2104.21 546.011 2104.99 553.011 2102.03L814.86 1991.35C821.86 1988.39 827.172 1982.08 829.054 1974.48L908.237 1654.83C909.761 1648.68 908.887 1642.26 905.812 1637.02L736.682 1348.64C733.313 1342.9 727.628 1339.11 721.129 1338.28L436.168 1301.76C428.424 1300.77 420.55 1304.1 415.398 1310.54Z" stroke="url(#paint61_linear_37_117)" stroke-opacity="0.2" stroke-width="4"/>
<path opacity="0.913043" d="M405.17 1320.02L205.998 1542.27C201.386 1547.42 199.102 1554.3 199.753 1561.09L231.788 1895.69C232.383 1901.91 235.384 1907.5 240.116 1911.21L481.224 2100.18C487.032 2104.74 494.77 2105.93 501.909 2103.38L766.214 2008.81C773.353 2006.26 778.976 2000.28 781.245 1992.84L875.431 1683.9C877.28 1677.84 876.723 1671.37 873.887 1665.96L721.194 1374.52C718.095 1368.61 712.576 1364.52 706.097 1363.34L426.328 1312.45C418.649 1311.05 410.636 1313.92 405.17 1320.02Z" stroke="url(#paint62_linear_37_117)" stroke-opacity="0.2" stroke-width="4"/>
<path opacity="0.927536" d="M382.573 1330.79L174.683 1537.76C169.795 1542.63 167.157 1549.36 167.469 1556.18L182.542 1885.37C182.828 1891.63 185.578 1897.4 190.168 1901.37L419.061 2099.23C424.65 2104.06 432.317 2105.67 439.569 2103.53L705.551 2025.05C712.802 2022.91 718.712 2017.3 721.359 2010.04L829.741 1712.66C831.914 1706.7 831.677 1700.19 829.083 1694.61L692.66 1401.22C689.835 1395.15 684.492 1390.77 678.049 1389.24L404.031 1324.46C396.445 1322.66 388.328 1325.06 382.573 1330.79Z" stroke="url(#paint63_linear_37_117)" stroke-opacity="0.2" stroke-width="4"/>
<path opacity="0.942029" d="M371.541 1342.81L155.823 1534.13C150.672 1538.7 147.685 1545.27 147.658 1552.1L146.376 1874.84C146.351 1881.13 148.845 1887.07 153.286 1891.29L369.781 2097.17C375.14 2102.26 382.709 2104.28 390.045 2102.56L656.937 2040.09C664.273 2038.38 670.444 2033.15 673.457 2026.09L795.189 1741.05C797.686 1735.2 797.771 1728.66 795.424 1722.92L675.042 1428.66C672.497 1422.44 667.34 1417.77 660.946 1415.91L393.209 1337.74C385.742 1335.56 377.557 1337.47 371.541 1342.81Z" stroke="url(#paint64_linear_37_117)" stroke-opacity="0.2" stroke-width="4"/>
<path opacity="0.956522" d="M360.013 1356.04L137.366 1531.4C131.966 1535.65 128.637 1542.04 128.27 1548.86L111.293 1864.15C110.953 1870.47 113.187 1876.57 117.474 1881.05L321.437 2094.07C326.552 2099.41 333.999 2101.82 341.39 2100.53L608.439 2053.96C615.829 2052.67 622.235 2047.84 625.6 2041.02L759.801 1769.03C762.622 1763.31 763.033 1756.74 760.937 1750.85L656.311 1456.77C654.048 1450.41 649.089 1445.46 642.759 1443.25L381.797 1352.24C374.475 1349.68 366.261 1351.12 360.013 1356.04Z" stroke="url(#paint65_linear_37_117)" stroke-opacity="0.2" stroke-width="4"/>
<path opacity="0.971014" d="M347.934 1370.41L119.261 1529.56C113.628 1533.48 109.964 1539.68 109.256 1546.47L77.2962 1853.39C76.637 1859.72 78.6039 1865.99 82.7322 1870.72L274.076 2090C278.937 2095.57 286.236 2098.38 293.652 2097.52L560.119 2066.68C567.535 2065.82 574.145 2061.41 577.849 2054.85L723.607 1796.55C726.752 1790.97 727.492 1784.39 725.652 1778.35L636.441 1485.46C634.465 1478.97 629.713 1473.76 623.462 1471.21L369.737 1367.89C362.585 1364.98 354.38 1365.93 347.934 1370.41Z" stroke="url(#paint66_linear_37_117)" stroke-opacity="0.2" stroke-width="4"/>
<path opacity="0.985507" d="M335.247 1385.9L101.456 1528.64C95.6053 1532.21 91.6161 1538.19 90.5673 1544.95L44.3803 1842.61C43.3973 1848.94 45.091 1855.38 49.0545 1860.36L227.74 2085.06C232.338 2090.84 239.463 2094.01 246.874 2093.59L512.039 2078.28C519.45 2077.86 526.234 2073.88 530.258 2067.6L686.635 1823.57C690.104 1818.15 691.178 1811.56 689.599 1805.37L615.409 1514.66C613.724 1508.06 609.19 1502.57 603.032 1499.7L356.972 1384.64C350.015 1381.39 341.857 1381.86 335.247 1385.9Z" stroke="url(#paint67_linear_37_117)" stroke-opacity="0.2" stroke-width="4"/>
<path d="M321.899 1402.42L83.8982 1528.63C77.848 1531.84 73.5421 1537.57 72.1522 1544.28L12.5382 1831.88C11.226 1838.22 12.6391 1844.81 16.4316 1850.04L182.466 2079.3C186.792 2085.28 193.72 2088.81 201.094 2088.81H464.254C471.629 2088.81 478.556 2085.28 482.882 2079.3L648.917 1850.04C652.709 1844.81 654.123 1838.22 652.81 1831.88L593.196 1544.28C591.806 1537.57 587.501 1531.84 581.45 1528.63L343.45 1402.42C336.71 1398.85 328.638 1398.85 321.899 1402.42Z" stroke="url(#paint68_linear_37_117)" stroke-opacity="0.2" stroke-width="4"/>
<defs>
<linearGradient id="paint0_linear_37_117" x1="3008.49" y1="1937.9" x2="2185.93" y2="260.109" gradientUnits="userSpaceOnUse">
<stop stop-color="#FF1CF7"/>
<stop offset="1" stop-color="#00B0FF" stop-opacity="0.1"/>
</linearGradient>
<linearGradient id="paint1_linear_37_117" x1="2934.77" y1="1958.41" x2="2210.92" y2="245.946" gradientUnits="userSpaceOnUse">
<stop stop-color="#FF1CF7"/>
<stop offset="1" stop-color="#00B0FF" stop-opacity="0.1"/>
</linearGradient>
<linearGradient id="paint2_linear_37_117" x1="2860.96" y1="1976.3" x2="2238.11" y2="235.445" gradientUnits="userSpaceOnUse">
<stop stop-color="#FF1CF7"/>
<stop offset="1" stop-color="#00B0FF" stop-opacity="0.1"/>
</linearGradient>
<linearGradient id="paint3_linear_37_117" x1="2787.18" y1="1991.57" x2="2267.11" y2="228.924" gradientUnits="userSpaceOnUse">
<stop stop-color="#FF1CF7"/>
<stop offset="1" stop-color="#00B0FF" stop-opacity="0.1"/>
</linearGradient>
<linearGradient id="paint4_linear_37_117" x1="2713.58" y1="2004.27" x2="2297.51" y2="226.649" gradientUnits="userSpaceOnUse">
<stop stop-color="#FF1CF7"/>
<stop offset="1" stop-color="#00B0FF" stop-opacity="0.1"/>
</linearGradient>
<linearGradient id="paint5_linear_37_117" x1="2640.26" y1="2014.42" x2="2328.85" y2="228.829" gradientUnits="userSpaceOnUse">
<stop stop-color="#FF1CF7"/>
<stop offset="1" stop-color="#00B0FF" stop-opacity="0.1"/>
</linearGradient>
<linearGradient id="paint6_linear_37_117" x1="2567.37" y1="2022.06" x2="2360.61" y2="235.607" gradientUnits="userSpaceOnUse">
<stop stop-color="#FF1CF7"/>
<stop offset="1" stop-color="#00B0FF" stop-opacity="0.1"/>
</linearGradient>
<linearGradient id="paint7_linear_37_117" x1="2495.01" y1="2027.26" x2="2392.28" y2="247.049" gradientUnits="userSpaceOnUse">
<stop stop-color="#FF1CF7"/>
<stop offset="1" stop-color="#00B0FF" stop-opacity="0.1"/>
</linearGradient>
<linearGradient id="paint8_linear_37_117" x1="2423.31" y1="2030.05" x2="2423.31" y2="263.143" gradientUnits="userSpaceOnUse">
<stop stop-color="#FF1CF7"/>
<stop offset="1" stop-color="#00B0FF" stop-opacity="0.1"/>
</linearGradient>
<linearGradient id="paint9_linear_37_117" x1="2352.38" y1="2030.51" x2="2453.18" y2="283.799" gradientUnits="userSpaceOnUse">
<stop stop-color="#FF1CF7"/>
<stop offset="1" stop-color="#00B0FF" stop-opacity="0.1"/>
</linearGradient>
<linearGradient id="paint10_linear_37_117" x1="2282.33" y1="2028.71" x2="2481.38" y2="308.85" gradientUnits="userSpaceOnUse">
<stop stop-color="#FF1CF7"/>
<stop offset="1" stop-color="#00B0FF" stop-opacity="0.1"/>
</linearGradient>
<linearGradient id="paint11_linear_37_117" x1="2213.26" y1="2024.72" x2="2507.42" y2="338.055" gradientUnits="userSpaceOnUse">
<stop stop-color="#FF1CF7"/>
<stop offset="1" stop-color="#00B0FF" stop-opacity="0.1"/>
</linearGradient>
<linearGradient id="paint12_linear_37_117" x1="2145.27" y1="2018.62" x2="2530.88" y2="371.11" gradientUnits="userSpaceOnUse">
<stop stop-color="#FF1CF7"/>
<stop offset="1" stop-color="#00B0FF" stop-opacity="0.1"/>
</linearGradient>
<linearGradient id="paint13_linear_37_117" x1="2078.45" y1="2010.5" x2="2551.37" y2="407.658" gradientUnits="userSpaceOnUse">
<stop stop-color="#FF1CF7"/>
<stop offset="1" stop-color="#00B0FF" stop-opacity="0.1"/>
</linearGradient>
<linearGradient id="paint14_linear_37_117" x1="2000.9" y1="2000.45" x2="2556.6" y2="447.296" gradientUnits="userSpaceOnUse">
<stop stop-color="#FF1CF7"/>
<stop offset="1" stop-color="#00B0FF" stop-opacity="0.1"/>
</linearGradient>
<linearGradient id="paint15_linear_37_117" x1="1924.7" y1="1988.57" x2="2558.31" y2="489.595" gradientUnits="userSpaceOnUse">
<stop stop-color="#FF1CF7"/>
<stop offset="1" stop-color="#00B0FF" stop-opacity="0.1"/>
</linearGradient>
<linearGradient id="paint16_linear_37_117" x1="1849.93" y1="1974.97" x2="2556.33" y2="534.107" gradientUnits="userSpaceOnUse">
<stop stop-color="#FF1CF7"/>
<stop offset="1" stop-color="#00B0FF" stop-opacity="0.1"/>
</linearGradient>
<linearGradient id="paint17_linear_37_117" x1="1788.65" y1="1959.73" x2="2562.55" y2="580.382" gradientUnits="userSpaceOnUse">
<stop stop-color="#FF1CF7"/>
<stop offset="1" stop-color="#00B0FF" stop-opacity="0.1"/>
</linearGradient>
<linearGradient id="paint18_linear_37_117" x1="1716.94" y1="1942.98" x2="2552.95" y2="627.975" gradientUnits="userSpaceOnUse">
<stop stop-color="#FF1CF7"/>
<stop offset="1" stop-color="#00B0FF" stop-opacity="0.1"/>
</linearGradient>
<linearGradient id="paint19_linear_37_117" x1="1646.86" y1="1924.82" x2="2539.55" y2="676.463" gradientUnits="userSpaceOnUse">
<stop stop-color="#FF1CF7"/>
<stop offset="1" stop-color="#00B0FF" stop-opacity="0.1"/>
</linearGradient>
<linearGradient id="paint20_linear_37_117" x1="1590.45" y1="1905.37" x2="2534.42" y2="725.447" gradientUnits="userSpaceOnUse">
<stop stop-color="#FF1CF7"/>
<stop offset="1" stop-color="#00B0FF" stop-opacity="0.1"/>
</linearGradient>
<linearGradient id="paint21_linear_37_117" x1="1523.77" y1="1884.74" x2="2513.7" y2="774.563" gradientUnits="userSpaceOnUse">
<stop stop-color="#FF1CF7"/>
<stop offset="1" stop-color="#00B0FF" stop-opacity="0.1"/>
</linearGradient>
<linearGradient id="paint22_linear_37_117" x1="1470.85" y1="1863.06" x2="2501.57" y2="823.487" gradientUnits="userSpaceOnUse">
<stop stop-color="#FF1CF7"/>
<stop offset="1" stop-color="#00B0FF" stop-opacity="0.1"/>
</linearGradient>
<linearGradient id="paint23_linear_37_117" x1="1407.74" y1="1840.43" x2="2474.2" y2="871.935" gradientUnits="userSpaceOnUse">
<stop stop-color="#FF1CF7"/>
<stop offset="1" stop-color="#00B0FF" stop-opacity="0.1"/>
</linearGradient>
<linearGradient id="paint24_linear_37_117" x1="1358.45" y1="1817" x2="2455.84" y2="919.671" gradientUnits="userSpaceOnUse">
<stop stop-color="#FF1CF7"/>
<stop offset="1" stop-color="#00B0FF" stop-opacity="0.1"/>
</linearGradient>
<linearGradient id="paint25_linear_37_117" x1="1299.02" y1="1792.86" x2="2422.71" y2="966.5" gradientUnits="userSpaceOnUse">
<stop stop-color="#FF1CF7"/>
<stop offset="1" stop-color="#00B0FF" stop-opacity="0.1"/>
</linearGradient>
<linearGradient id="paint26_linear_37_117" x1="1253.45" y1="1768.16" x2="2399.07" y2="1012.27" gradientUnits="userSpaceOnUse">
<stop stop-color="#FF1CF7"/>
<stop offset="1" stop-color="#00B0FF" stop-opacity="0.1"/>
</linearGradient>
<linearGradient id="paint27_linear_37_117" x1="1209.75" y1="1743" x2="2373.16" y2="1056.87" gradientUnits="userSpaceOnUse">
<stop stop-color="#FF1CF7"/>
<stop offset="1" stop-color="#00B0FF" stop-opacity="0.1"/>
</linearGradient>
<linearGradient id="paint28_linear_37_117" x1="1155.93" y1="1717.5" x2="2333.21" y2="1100.24" gradientUnits="userSpaceOnUse">
<stop stop-color="#FF1CF7"/>
<stop offset="1" stop-color="#00B0FF" stop-opacity="0.1"/>
</linearGradient>
<linearGradient id="paint29_linear_37_117" x1="1115.98" y1="1691.8" x2="2303.47" y2="1142.33" gradientUnits="userSpaceOnUse">
<stop stop-color="#FF1CF7"/>
<stop offset="1" stop-color="#00B0FF" stop-opacity="0.1"/>
</linearGradient>
<linearGradient id="paint30_linear_37_117" x1="1077.89" y1="1666" x2="2272.14" y2="1183.13" gradientUnits="userSpaceOnUse">
<stop stop-color="#FF1CF7"/>
<stop offset="1" stop-color="#00B0FF" stop-opacity="0.1"/>
</linearGradient>
<linearGradient id="paint31_linear_37_117" x1="1041.65" y1="1640.22" x2="2239.44" y2="1222.67" gradientUnits="userSpaceOnUse">
<stop stop-color="#FF1CF7"/>
<stop offset="1" stop-color="#00B0FF" stop-opacity="0.1"/>
</linearGradient>
<linearGradient id="paint32_linear_37_117" x1="995.228" y1="1614.59" x2="2193.53" y2="1261" gradientUnits="userSpaceOnUse">
<stop stop-color="#FF1CF7"/>
<stop offset="1" stop-color="#00B0FF" stop-opacity="0.1"/>
</linearGradient>
<linearGradient id="paint33_linear_37_117" x1="962.6" y1="1589.19" x2="2158.59" y2="1298.17" gradientUnits="userSpaceOnUse">
<stop stop-color="#FF1CF7"/>
<stop offset="1" stop-color="#00B0FF" stop-opacity="0.1"/>
</linearGradient>
<linearGradient id="paint34_linear_37_117" x1="931.732" y1="1564.16" x2="2122.75" y2="1334.25" gradientUnits="userSpaceOnUse">
<stop stop-color="#FF1CF7"/>
<stop offset="1" stop-color="#00B0FF" stop-opacity="0.1"/>
</linearGradient>
<linearGradient id="paint35_linear_37_117" x1="902.585" y1="1539.59" x2="2086.14" y2="1369.35" gradientUnits="userSpaceOnUse">
<stop stop-color="#FF1CF7"/>
<stop offset="1" stop-color="#00B0FF" stop-opacity="0.1"/>
</linearGradient>
<linearGradient id="paint36_linear_37_117" x1="875.116" y1="1515.58" x2="2048.84" y2="1403.55" gradientUnits="userSpaceOnUse">
<stop stop-color="#FF1CF7"/>
<stop offset="1" stop-color="#00B0FF" stop-opacity="0.1"/>
</linearGradient>
<linearGradient id="paint37_linear_37_117" x1="849.273" y1="1492.24" x2="2010.93" y2="1436.95" gradientUnits="userSpaceOnUse">
<stop stop-color="#FF1CF7"/>
<stop offset="1" stop-color="#00B0FF" stop-opacity="0.1"/>
</linearGradient>
<linearGradient id="paint38_linear_37_117" x1="825.005" y1="1469.65" x2="1972.46" y2="1469.65" gradientUnits="userSpaceOnUse">
<stop stop-color="#FF1CF7"/>
<stop offset="1" stop-color="#00B0FF" stop-opacity="0.1"/>
</linearGradient>
<linearGradient id="paint39_linear_37_117" x1="790.253" y1="1447.91" x2="1921.46" y2="1501.74" gradientUnits="userSpaceOnUse">
<stop stop-color="#FF1CF7"/>
<stop offset="1" stop-color="#00B0FF" stop-opacity="0.1"/>
</linearGradient>
<linearGradient id="paint40_linear_37_117" x1="768.954" y1="1427.1" x2="1881.94" y2="1533.33" gradientUnits="userSpaceOnUse">
<stop stop-color="#FF1CF7"/>
<stop offset="1" stop-color="#00B0FF" stop-opacity="0.1"/>
</linearGradient>
<linearGradient id="paint41_linear_37_117" x1="737.042" y1="1407.3" x2="1829.9" y2="1564.49" gradientUnits="userSpaceOnUse">
<stop stop-color="#FF1CF7"/>
<stop offset="1" stop-color="#00B0FF" stop-opacity="0.1"/>
</linearGradient>
<linearGradient id="paint42_linear_37_117" x1="718.447" y1="1388.59" x2="1789.32" y2="1595.3" gradientUnits="userSpaceOnUse">
<stop stop-color="#FF1CF7"/>
<stop offset="1" stop-color="#00B0FF" stop-opacity="0.1"/>
</linearGradient>
<linearGradient id="paint43_linear_37_117" x1="689.096" y1="1371.03" x2="1736.15" y2="1625.82" gradientUnits="userSpaceOnUse">
<stop stop-color="#FF1CF7"/>
<stop offset="1" stop-color="#00B0FF" stop-opacity="0.1"/>
</linearGradient>
<linearGradient id="paint44_linear_37_117" x1="660.913" y1="1354.7" x2="1682.34" y2="1656.09" gradientUnits="userSpaceOnUse">
<stop stop-color="#FF1CF7"/>
<stop offset="1" stop-color="#00B0FF" stop-opacity="0.1"/>
</linearGradient>
<linearGradient id="paint45_linear_37_117" x1="645.819" y1="1339.64" x2="1639.85" y2="1686.17" gradientUnits="userSpaceOnUse">
<stop stop-color="#FF1CF7"/>
<stop offset="1" stop-color="#00B0FF" stop-opacity="0.1"/>
</linearGradient>
<linearGradient id="paint46_linear_37_117" x1="619.733" y1="1325.92" x2="1584.59" y2="1716.04" gradientUnits="userSpaceOnUse">
<stop stop-color="#FF1CF7"/>
<stop offset="1" stop-color="#00B0FF" stop-opacity="0.1"/>
</linearGradient>
<linearGradient id="paint47_linear_37_117" x1="606.572" y1="1313.58" x2="1540.5" y2="1745.73" gradientUnits="userSpaceOnUse">
<stop stop-color="#FF1CF7"/>
<stop offset="1" stop-color="#00B0FF" stop-opacity="0.1"/>
</linearGradient>
<linearGradient id="paint48_linear_37_117" x1="594.251" y1="1302.66" x2="1495.5" y2="1775.2" gradientUnits="userSpaceOnUse">
<stop stop-color="#FF1CF7"/>
<stop offset="1" stop-color="#00B0FF" stop-opacity="0.1"/>
</linearGradient>
<linearGradient id="paint49_linear_37_117" x1="570.684" y1="1293.2" x2="1437.51" y2="1804.41" gradientUnits="userSpaceOnUse">
<stop stop-color="#FF1CF7"/>
<stop offset="1" stop-color="#00B0FF" stop-opacity="0.1"/>
</linearGradient>
<linearGradient id="paint50_linear_37_117" x1="559.784" y1="1285.22" x2="1390.46" y2="1833.3" gradientUnits="userSpaceOnUse">
<stop stop-color="#FF1CF7"/>
<stop offset="1" stop-color="#00B0FF" stop-opacity="0.1"/>
</linearGradient>
<linearGradient id="paint51_linear_37_117" x1="537.463" y1="1278.75" x2="1330.28" y2="1861.79" gradientUnits="userSpaceOnUse">
<stop stop-color="#FF1CF7"/>
<stop offset="1" stop-color="#00B0FF" stop-opacity="0.1"/>
</linearGradient>
<linearGradient id="paint52_linear_37_117" x1="527.633" y1="1273.81" x2="1280.93" y2="1889.78" gradientUnits="userSpaceOnUse">
<stop stop-color="#FF1CF7"/>
<stop offset="1" stop-color="#00B0FF" stop-opacity="0.1"/>
</linearGradient>
<linearGradient id="paint53_linear_37_117" x1="518.205" y1="1270.41" x2="1230.36" y2="1917.14" gradientUnits="userSpaceOnUse">
<stop stop-color="#FF1CF7"/>
<stop offset="1" stop-color="#00B0FF" stop-opacity="0.1"/>
</linearGradient>
<linearGradient id="paint54_linear_37_117" x1="497.092" y1="1268.55" x2="1166.55" y2="1943.75" gradientUnits="userSpaceOnUse">
<stop stop-color="#FF1CF7"/>
<stop offset="1" stop-color="#00B0FF" stop-opacity="0.1"/>
</linearGradient>
<linearGradient id="paint55_linear_37_117" x1="488.206" y1="1268.23" x2="1113.49" y2="1969.46" gradientUnits="userSpaceOnUse">
<stop stop-color="#FF1CF7"/>
<stop offset="1" stop-color="#00B0FF" stop-opacity="0.1"/>
</linearGradient>
<linearGradient id="paint56_linear_37_117" x1="479.462" y1="1269.45" x2="1059.2" y2="1994.09" gradientUnits="userSpaceOnUse">
<stop stop-color="#FF1CF7"/>
<stop offset="1" stop-color="#00B0FF" stop-opacity="0.1"/>
</linearGradient>
<linearGradient id="paint57_linear_37_117" x1="470.774" y1="1272.2" x2="1003.74" y2="2017.5" gradientUnits="userSpaceOnUse">
<stop stop-color="#FF1CF7"/>
<stop offset="1" stop-color="#00B0FF" stop-opacity="0.1"/>
</linearGradient>
<linearGradient id="paint58_linear_37_117" x1="450.058" y1="1276.45" x2="935.172" y2="2039.51" gradientUnits="userSpaceOnUse">
<stop stop-color="#FF1CF7"/>
<stop offset="1" stop-color="#00B0FF" stop-opacity="0.1"/>
</linearGradient>
<linearGradient id="paint59_linear_37_117" x1="441.233" y1="1282.19" x2="877.608" y2="2059.95" gradientUnits="userSpaceOnUse">
<stop stop-color="#FF1CF7"/>
<stop offset="1" stop-color="#00B0FF" stop-opacity="0.1"/>
</linearGradient>
<linearGradient id="paint60_linear_37_117" x1="432.22" y1="1289.38" x2="819.179" y2="2078.67" gradientUnits="userSpaceOnUse">
<stop stop-color="#FF1CF7"/>
<stop offset="1" stop-color="#00B0FF" stop-opacity="0.1"/>
</linearGradient>
<linearGradient id="paint61_linear_37_117" x1="422.94" y1="1298" x2="760.047" y2="2095.52" gradientUnits="userSpaceOnUse">
<stop stop-color="#FF1CF7"/>
<stop offset="1" stop-color="#00B0FF" stop-opacity="0.1"/>
</linearGradient>
<linearGradient id="paint62_linear_37_117" x1="413.32" y1="1308" x2="700.402" y2="2110.39" gradientUnits="userSpaceOnUse">
<stop stop-color="#FF1CF7"/>
<stop offset="1" stop-color="#00B0FF" stop-opacity="0.1"/>
</linearGradient>
<linearGradient id="paint63_linear_37_117" x1="391.288" y1="1319.35" x2="628.457" y2="2123.17" gradientUnits="userSpaceOnUse">
<stop stop-color="#FF1CF7"/>
<stop offset="1" stop-color="#00B0FF" stop-opacity="0.1"/>
</linearGradient>
<linearGradient id="paint64_linear_37_117" x1="380.776" y1="1331.99" x2="568.442" y2="2133.79" gradientUnits="userSpaceOnUse">
<stop stop-color="#FF1CF7"/>
<stop offset="1" stop-color="#00B0FF" stop-opacity="0.1"/>
</linearGradient>
<linearGradient id="paint65_linear_37_117" x1="369.718" y1="1345.88" x2="508.604" y2="2142.22" gradientUnits="userSpaceOnUse">
<stop stop-color="#FF1CF7"/>
<stop offset="1" stop-color="#00B0FF" stop-opacity="0.1"/>
</linearGradient>
<linearGradient id="paint66_linear_37_117" x1="358.053" y1="1360.96" x2="449.195" y2="2148.46" gradientUnits="userSpaceOnUse">
<stop stop-color="#FF1CF7"/>
<stop offset="1" stop-color="#00B0FF" stop-opacity="0.1"/>
</linearGradient>
<linearGradient id="paint67_linear_37_117" x1="345.724" y1="1377.16" x2="390.47" y2="2152.55" gradientUnits="userSpaceOnUse">
<stop stop-color="#FF1CF7"/>
<stop offset="1" stop-color="#00B0FF" stop-opacity="0.1"/>
</linearGradient>
<linearGradient id="paint68_linear_37_117" x1="332.674" y1="1394.44" x2="332.674" y2="2154.57" gradientUnits="userSpaceOnUse">
<stop stop-color="#FF1CF7"/>
<stop offset="1" stop-color="#00B0FF" stop-opacity="0.1"/>
</linearGradient>
</defs>
</svg>
