<svg width="144" height="54" viewBox="0 0 144 54" fill="none" xmlns="http://www.w3.org/2000/svg">
    <rect x="1.5" y="1.5" width="140.2" height="51" rx="13.5" stroke="url(#paint0_linear_1_5)" stroke-opacity="0.4"
        stroke-width="3" />
    <g clip-path="url(#clip0_1_5)">
        <path
            d="M43.273 36.3773H27.9279C27.3105 36.3765 26.7186 36.1308 26.2821 35.6941C25.8457 35.2574 25.6004 34.6653 25.6 34.0479V23.1381C25.6007 22.5209 25.8462 21.9291 26.2826 21.4927C26.719 21.0563 27.3107 20.8108 27.9279 20.8101H43.273C43.8901 20.8108 44.4819 21.0563 44.9183 21.4927C45.3547 21.9291 45.6002 22.5209 45.6009 23.1381V34.0491C45.6002 34.6663 45.3547 35.2581 44.9183 35.6945C44.4819 36.131 43.8902 36.3765 43.273 36.3773ZM27.9279 21.7411C27.5576 21.7416 27.2026 21.8889 26.9407 22.1508C26.6789 22.4127 26.5316 22.7677 26.5312 23.1381V34.0491C26.5316 34.4194 26.6789 34.7745 26.9407 35.0364C27.2026 35.2983 27.5576 35.4456 27.9279 35.446H43.273C43.6433 35.4456 43.9983 35.2983 44.2601 35.0364C44.522 34.7745 44.6692 34.4194 44.6696 34.0491V23.1381C44.6692 22.7677 44.522 22.4127 44.2601 22.1508C43.9983 21.8889 43.6433 21.7416 43.273 21.7411H27.9279Z"
            fill="white" />
        <path
            d="M44.6696 31.4277H38.0525C37.8056 31.4275 37.5689 31.3293 37.3943 31.1547C37.2197 30.9801 37.1215 30.7434 37.1212 30.4965V26.6907C37.1216 26.4438 37.2198 26.2071 37.3943 26.0325C37.5689 25.858 37.8056 25.7598 38.0525 25.7594H44.6696C44.9165 25.7597 45.1532 25.8579 45.3278 26.0325C45.5024 26.2071 45.6006 26.4438 45.6009 26.6907V30.4965C45.6006 30.7434 45.5024 30.9801 45.3278 31.1547C45.1532 31.3293 44.9165 31.4275 44.6696 31.4277ZM38.0525 26.6907V30.4965H44.6682L44.6696 26.6907H38.0525ZM30.4088 21.6866L30.0486 20.8281L37.2324 17.8055C37.8017 17.5664 38.4426 17.563 39.0144 17.796C39.5862 18.029 40.0421 18.4793 40.2822 19.0482L41.2238 21.2863L40.3653 21.6465L39.4237 19.4086C39.2797 19.0675 39.0061 18.7975 38.6632 18.658C38.3202 18.5184 37.9359 18.5206 37.5946 18.6642L30.4088 21.6866Z"
            fill="white" />
        <path
            d="M39.2242 28.5936C39.2242 28.7159 39.2483 28.837 39.2951 28.95C39.3419 29.063 39.4105 29.1656 39.4969 29.2521C39.5834 29.3386 39.6861 29.4072 39.7991 29.454C39.9121 29.5008 40.0332 29.5249 40.1555 29.5249C40.2777 29.5249 40.3988 29.5008 40.5118 29.454C40.6248 29.4072 40.7275 29.3386 40.814 29.2521C40.9004 29.1656 40.969 29.063 41.0158 28.95C41.0626 28.837 41.0867 28.7159 41.0867 28.5936C41.0867 28.4713 41.0626 28.3502 41.0158 28.2372C40.969 28.1242 40.9004 28.0216 40.814 27.9351C40.7275 27.8486 40.6248 27.78 40.5118 27.7332C40.3988 27.6864 40.2777 27.6623 40.1555 27.6623C40.0332 27.6623 39.9121 27.6864 39.7991 27.7332C39.6861 27.78 39.5834 27.8486 39.4969 27.9351C39.4105 28.0216 39.3419 28.1242 39.2951 28.2372C39.2483 28.3502 39.2242 28.4713 39.2242 28.5936Z"
            fill="white" />
    </g>
    <path
        d="M54.0453 25.5312C55.4099 25.0469 56.4281 24.5885 57.1 24.1562C57.7719 23.7188 58.4854 23.0573 59.2406 22.1719H56.8344C56.7875 22.1719 56.4281 22.1927 55.7562 22.2344C55.4229 22.2552 55.1208 22.2656 54.85 22.2656C54.9125 21.9167 54.9437 21.6667 54.9437 21.5156C54.9437 21.3385 54.9229 21.0964 54.8812 20.7891C55.2823 20.8151 55.5844 20.8333 55.7875 20.8438C56.35 20.8854 56.7302 20.9062 56.9281 20.9062H60.8031V20.0391C60.8031 20.0078 60.7823 19.7969 60.7406 19.4062C60.7198 19.2188 60.7094 19.0677 60.7094 18.9531C61.4646 19.0521 62.0557 19.1016 62.4828 19.1016C62.264 19.4349 62.1547 19.7474 62.1547 20.0391V20.9062H65.7015C66.5505 20.9062 67.3786 20.8359 68.1859 20.6953C68.1338 21.0495 68.1078 21.3255 68.1078 21.5234C68.1078 21.6901 68.139 21.9557 68.2015 22.3203C67.2797 22.2214 66.6885 22.1719 66.4281 22.1719H63.514C65.0713 23.776 66.9229 24.6849 69.0687 24.8984C68.6312 25.2474 68.2302 25.737 67.8656 26.3672C67.2719 26.1589 66.6703 25.8984 66.0609 25.5859C66.0036 26.3776 65.975 26.9896 65.975 27.4219V29.7969L66.0219 30.6328C66.0323 30.8203 66.0375 31.0234 66.0375 31.2422L65.1937 31.2109L64.1703 31.1797H58.9984C58.1703 31.1797 57.4463 31.2005 56.8265 31.2422L56.8656 30.4531C56.8864 30.0625 56.8969 29.763 56.8969 29.5547V27.3594V26.5156C56.8969 26.3906 56.876 26.112 56.8344 25.6797C56.3187 26.0234 55.7953 26.3542 55.264 26.6719C55.0817 26.3229 54.6755 25.9427 54.0453 25.5312ZM57.1937 25.4375H60.8031V22.1719C59.7614 23.4479 58.5583 24.5365 57.1937 25.4375ZM58.1859 29.9453H64.6859V28.8359H58.1859V29.9453ZM58.1859 26.5469V27.6953H64.6859V26.5469H58.1859ZM62.1547 22.1719V25.4375H65.7328C64.5297 24.6146 63.337 23.526 62.1547 22.1719ZM54.725 33.7578C54.7927 33.3828 54.8265 33.099 54.8265 32.9062C54.8265 32.75 54.8005 32.513 54.7484 32.1953C55.764 32.2682 56.4776 32.3047 56.889 32.3047H66.2875C66.6156 32.3047 67.2432 32.2708 68.1703 32.2031L68.1547 32.9297C68.1547 33.0911 68.1625 33.3646 68.1781 33.75C67.9958 33.75 67.738 33.7396 67.4047 33.7188C66.7797 33.6823 66.4333 33.6641 66.3656 33.6641H56.8031C55.9385 33.6641 55.2458 33.6953 54.725 33.7578ZM70.1547 29.3672C72.2692 28.3411 73.8317 27.1042 74.8422 25.6562H72.4125L71.3812 25.6875L70.6078 25.7109C70.6286 25.4349 70.639 25.2344 70.639 25.1094C70.639 24.9479 70.6286 24.724 70.6078 24.4375C71.5245 24.4792 72.1469 24.5 72.475 24.5H75.4515C75.6078 24.1354 75.7432 23.7708 75.8578 23.4062H73.975L73.0609 23.4375L72.3109 23.4609C72.3317 23.1693 72.3422 22.9635 72.3422 22.8438C72.3422 22.6823 72.337 22.4766 72.3265 22.2266C72.7797 22.2682 73.1729 22.2891 73.5062 22.2891H76.1C76.1573 21.9401 76.2067 21.5703 76.2484 21.1797C74.7692 21.1797 73.3448 21.2578 71.975 21.4141C71.8708 20.8307 71.6521 20.2917 71.3187 19.7969C72.9489 19.9219 74.1859 19.9844 75.0297 19.9844C78.3995 19.9844 80.9646 19.7969 82.725 19.4219C82.9229 20.0104 83.2067 20.5703 83.5765 21.1016C82.9567 21.0391 82.3265 21.0078 81.6859 21.0078L77.5375 21.0938C77.4594 21.5208 77.3916 21.9193 77.3344 22.2891H80.8422L81.725 22.2578L82.5453 22.2266C82.5192 22.5234 82.5062 22.7526 82.5062 22.9141C82.5062 23.0286 82.5166 23.2109 82.5375 23.4609L81.9047 23.4375L80.6937 23.4062H77.1C76.9698 23.7865 76.8317 24.151 76.6859 24.5H82.6937L83.7015 24.4766L84.6625 24.4375C84.6416 24.724 84.6312 24.9427 84.6312 25.0938C84.6312 25.224 84.6416 25.4297 84.6625 25.7109L83.7015 25.6875L82.639 25.6484H76.2172C75.9932 26.0234 75.7458 26.3776 75.475 26.7109H80.8969C81.2406 26.7109 81.7901 26.6901 82.5453 26.6484C82.4984 27.0911 82.475 27.5938 82.475 28.1562V32.6562C82.475 33.0365 82.5088 33.5677 82.5765 34.25C82.2588 34.2344 82.0192 34.2266 81.8578 34.2266C81.6963 34.2266 81.4541 34.2344 81.1312 34.25C81.1312 34.1823 81.139 34.0521 81.1547 33.8594C81.1703 33.5677 81.1781 33.3932 81.1781 33.3359V32.9531H75.139V33.4844C75.139 33.5781 75.1442 33.7083 75.1547 33.875L75.1859 34.2891C74.8942 34.2682 74.6755 34.2578 74.5297 34.2578C74.3995 34.2578 74.1989 34.2656 73.9281 34.2812C73.975 33.7917 73.9984 33.3568 73.9984 32.9766V28.2266C73.4515 28.7474 72.7562 29.3411 71.9125 30.0078L71.264 30.5234C71.0192 30.0911 70.6495 29.7057 70.1547 29.3672ZM75.1469 31.1875V32.0312H81.1859V31.1875H75.1469ZM75.139 27.7031V28.5078H81.1937V27.7031H75.139ZM75.1547 29.3828V30.3047H81.1937V29.3828H75.1547ZM86.0375 24.5156C87.4854 22.9948 88.4385 21.1901 88.8969 19.1016C89.4229 19.4557 90.0245 19.6562 90.7015 19.7031C90.3474 20.0417 90.0245 20.4818 89.7328 21.0234L89.3109 21.7969H91.0453C91.4724 21.7969 91.889 21.7708 92.2953 21.7188C92.2172 22.0365 92.1781 22.2708 92.1781 22.4219C92.1781 22.5781 92.212 22.8047 92.2797 23.1016C91.8057 23.0391 91.3838 23.0078 91.014 23.0078H88.7172C88.3942 23.5599 88.0453 24.1042 87.6703 24.6406H90.6312C90.975 24.6406 91.2927 24.6146 91.5844 24.5625C91.5062 24.849 91.4672 25.0599 91.4672 25.1953C91.4672 25.3411 91.5062 25.5573 91.5844 25.8438C91.2354 25.7865 90.962 25.7578 90.764 25.7578H89.7015V27.6484H90.7875C91.0219 27.6484 91.3526 27.6276 91.7797 27.5859C91.7276 27.888 91.7015 28.1094 91.7015 28.25C91.7015 28.3906 91.7224 28.5938 91.764 28.8594C91.3422 28.7969 91.0036 28.7656 90.7484 28.7656H89.7094V31.7656C90.5427 31.0729 91.3005 30.4531 91.9828 29.9062L92.0219 30.1328C92.0791 30.4609 92.2067 30.8073 92.4047 31.1719C91.0922 32.0208 89.9437 33.0286 88.9594 34.1953C88.7614 33.6849 88.4359 33.2474 87.9828 32.8828C88.4047 32.6016 88.6156 32.2552 88.6156 31.8438V28.7656H87.6937H87.0375C86.9646 28.7656 86.7875 28.7865 86.5062 28.8281C86.5479 28.5521 86.5687 28.349 86.5687 28.2188C86.5687 28.0677 86.5479 27.8516 86.5062 27.5703C86.9125 27.6224 87.3474 27.6484 87.8109 27.6484H88.6156V25.7578H88.2562C88.0323 25.7578 87.7745 25.7865 87.4828 25.8438C87.5349 25.599 87.5609 25.4167 87.5609 25.2969C87.5609 25.2083 87.5479 25.0781 87.5219 24.9062C87.3239 25.1823 87.1052 25.4453 86.8656 25.6953C86.7094 25.2109 86.4333 24.8177 86.0375 24.5156ZM91.0609 32.7109C92.7797 32.4089 94.2797 31.6849 95.5609 30.5391C95.1755 29.7318 94.8786 28.6641 94.6703 27.3359L93.1312 27.7266C92.9229 27.7786 92.5948 27.8828 92.1469 28.0391C92.1469 27.6589 92.0817 27.224 91.9515 26.7344C92.3682 26.6823 92.6885 26.6276 92.9125 26.5703L94.4594 26.1953C94.3864 25.6276 94.3213 25.0365 94.264 24.4219L92.889 24.7812C92.6703 24.8385 92.389 24.9245 92.0453 25.0391C92.0453 24.6068 91.9594 24.1745 91.7875 23.7422C92.0062 23.7214 92.3213 23.6693 92.7328 23.5859L94.1469 23.2969C94.1208 22.8958 94.1078 22.6797 94.1078 22.6484L94.0219 19.6875L93.9984 18.9375C94.6547 19.0885 95.2849 19.1641 95.889 19.1641C95.6599 19.3307 95.5114 19.6094 95.4437 20C95.376 20.3906 95.3422 21.151 95.3422 22.2812L95.35 23.0469L98.5609 22.2734C98.8057 22.2161 99.2041 22.0807 99.7562 21.8672C99.7562 22.2578 99.85 22.6849 100.037 23.1484C99.7041 23.1953 99.3317 23.2682 98.9203 23.3672L95.4203 24.2031C95.4776 24.7917 95.5427 25.362 95.6156 25.9141L99.2015 24.9375C99.3942 24.8854 99.764 24.7292 100.311 24.4688C100.311 24.9844 100.418 25.4401 100.631 25.8359L100.155 25.9141C99.8474 25.9661 99.6156 26.013 99.4594 26.0547L95.7953 27.0078C95.9515 28.0026 96.1963 28.9505 96.5297 29.8516C97.3526 28.987 98.0661 28.0911 98.6703 27.1641C99.014 27.638 99.4802 27.9948 100.069 28.2344C99.6729 28.4167 99.2901 28.6849 98.9203 29.0391L97.7172 30.1875C97.639 30.2656 97.4307 30.487 97.0922 30.8516C97.8734 31.9714 98.501 32.5312 98.975 32.5312C99.3448 32.5312 99.5505 32.1042 99.5922 31.25C99.6026 31.0885 99.6234 30.8438 99.6547 30.5156C100.118 31.0885 100.574 31.4115 101.022 31.4844L100.983 31.6484C100.545 33.3828 100.061 34.25 99.5297 34.25C99.0453 34.25 98.4828 33.9948 97.8422 33.4844C97.2067 32.974 96.6599 32.3438 96.2015 31.5938C95.2588 32.3698 94.0349 33.1484 92.5297 33.9297L92.3656 34.0234C92.3031 33.9401 92.264 33.888 92.2484 33.8672L91.9515 33.4141C91.8422 33.2422 91.5453 33.0078 91.0609 32.7109ZM96.5609 20.0078C96.9567 19.8203 97.3135 19.5938 97.6312 19.3281C97.7719 19.5938 98.0349 19.9531 98.4203 20.4062L98.9828 21.0703C99.0036 21.0964 99.0817 21.1745 99.2172 21.3047C98.764 21.4193 98.3526 21.625 97.9828 21.9219C97.6026 21.1615 97.1286 20.5234 96.5609 20.0078ZM101.912 25.0391C102.704 24.5807 103.511 23.7604 104.334 22.5781C105.162 21.3906 105.806 20.125 106.264 18.7812C106.92 19.1406 107.571 19.401 108.217 19.5625C107.769 19.7865 107.28 20.2917 106.748 21.0781H112.491C113.11 21.0781 113.939 21.0521 114.975 21L114.92 21.5859C114.879 21.9922 114.858 22.2578 114.858 22.3828L114.662 28.0391C114.662 28.7318 114.446 29.2708 114.014 29.6562C113.587 30.0417 112.988 30.2344 112.217 30.2344H112.022C111.959 29.724 111.743 29.2031 111.373 28.6719C111.545 28.6823 111.673 28.6927 111.756 28.7031C111.933 28.7188 112.05 28.7266 112.108 28.7266C112.873 28.7266 113.256 28.362 113.256 27.6328L113.436 22.4375H105.998L104.702 24.25H108.78C109.566 24.25 110.412 24.2135 111.319 24.1406L111.256 26.6094L111.319 28.9375C110.626 28.8906 109.829 28.8672 108.928 28.8672H105.803V31.7734V32.1484C105.834 32.4349 106.09 32.5781 106.569 32.5781H107.514H112.756C113.392 32.5781 113.782 32.5547 113.928 32.5078C114.074 32.4609 114.217 32.3177 114.358 32.0781C114.582 31.6823 114.694 31.0339 114.694 30.1328C115.064 30.4609 115.595 30.724 116.287 30.9219C116.116 31.974 115.845 32.737 115.475 33.2109C115.105 33.6849 114.592 33.9219 113.936 33.9219H106.631C105.845 33.9219 105.282 33.7969 104.944 33.5469C104.605 33.2969 104.436 32.8828 104.436 32.3047V24.5938L103.334 26.1719C102.959 25.6771 102.485 25.2995 101.912 25.0391ZM105.803 27.75H109.959V25.3438H105.803V27.75Z"
        fill="white" />
    <defs>
        <linearGradient id="paint0_linear_1_5" x1="93.0941" y1="-48.0508" x2="170.356" y2="84.0462"
            gradientUnits="userSpaceOnUse">
            <stop stop-color="white" />
            <stop offset="1" stop-color="white" stop-opacity="0" />
        </linearGradient>
        <clipPath id="clip0_1_5">
            <rect width="20" height="20" fill="white" transform="translate(25.6 17)" />
        </clipPath>
    </defs>
</svg>