<svg t="1723277656270" class="icon" viewBox="0 0 1536 1024" version="1.1" xmlns="http://www.w3.org/2000/svg" p-id="4694"
    width="200" height="200">
    <path
        d="M97.52381 1024h1340.95238a97.52381 97.52381 0 0 0 97.52381-97.52381V97.52381a97.52381 97.52381 0 0 0-97.52381-97.52381H97.52381a97.52381 97.52381 0 0 0-97.52381 97.52381v828.95238a97.52381 97.52381 0 0 0 97.52381 97.52381z"
        fill="#F5F7FA" p-id="4695"></path>
    <path
        d="M73.142857 0h1389.714286a73.142857 73.142857 0 0 1 73.142857 73.142857v14.628572H0V73.142857a73.142857 73.142857 0 0 1 73.142857-73.142857zM0 164.571429h1536v73.142857H0z m0 157.257142h1536v73.142858H0z m0 157.257143h1536v73.142857H0z m0 157.257143h1536v73.142857H0z m0 157.257143h1536v73.142857H0zM0 950.857143h1536a73.142857 73.142857 0 0 1-73.142857 73.142857H73.142857a73.142857 73.142857 0 0 1-73.142857-73.142857z"
        fill="#FF4747" p-id="4696"></path>
    <path d="M73.142857 0h541.257143v552.228571H0V73.142857a73.142857 73.142857 0 0 1 73.142857-73.142857z"
        fill="#4747B2" p-id="4697"></path>
    <path
        d="M109.714286 91.428571l3.657143 10.971429h10.971428l-7.314286 3.657143 4.876191 10.971428-12.190476-7.314285-7.314286 7.314285 3.657143-10.971428-10.971429-3.657143h10.971429z m102.4 0v10.971429h10.971428l-7.314285 3.657143 3.657142 10.971428-7.314285-7.314285-10.971429 7.314285 3.657143-10.971428-7.314286-3.657143h10.971429z m102.4 0l3.657143 10.971429h10.971428l-10.971428 3.657143 3.657142 10.971428-7.314285-7.314285-10.971429 7.314285 3.657143-10.971428-7.314286-3.657143h10.971429z m97.523809 0l3.657143 10.971429h10.971429l-7.314286 3.657143 3.657143 10.971428-8.533334-7.314285-7.314285 7.314285 3.657143-10.971428-7.314286-3.657143H414.47619z m106.057143 0l3.657143 10.971429h10.971429l-10.971429 3.657143 3.657143 10.971428-7.314286-7.314285-10.971428 7.314285 4.87619-10.971428-7.314286-3.657143h10.971429zM58.514286 36.571429l3.657143 12.190476H73.142857l-10.971428 7.314285 3.657142 10.971429-7.314285-7.314286-7.314286 7.314286v-12.190476L43.885714 48.761905h10.971429z m102.4 0l3.657143 12.190476h7.314285l-7.314285 7.314285 3.657142 10.971429-7.314285-7.314286-10.971429 7.314286 3.657143-10.971429L146.285714 48.761905h10.971429z m102.4 0l4.87619 12.190476h10.971429l-10.971429 7.314285 3.657143 10.971429-7.314286-7.314286-10.971428 7.314286 3.657143-10.971429-8.533334-7.314285h10.971429z m102.4 0V48.761905h10.971428l-7.314285 7.314285 3.657142 10.971429-7.314285-8.533333-10.971429 7.314285 3.657143-10.971428-7.314286-6.095238h10.971429z m102.4 0l3.657143 10.971428h10.971428l-10.971428 7.314286 3.657142 10.971428-7.314285-7.314285-7.314286 7.314285v-10.971428L453.485714 48.761905h10.971429z m102.4 0l3.657143 10.971428h7.314285l-7.314285 7.314286 3.657142 10.971428-7.314285-7.314285-9.752381 7.314285 3.657143-10.971428L555.885714 48.761905h10.971429zM109.714286 204.8l3.657143 7.314286h10.971428l-7.314286 7.314285 4.876191 10.971429-10.971429-7.314286-7.314285 7.314286 2.438095-10.971429-10.971429-7.314285h10.971429z m102.4 0v7.314286h10.971428l-7.314285 7.314285 3.657142 10.971429-7.314285-7.314286-10.971429 7.314286L204.8 219.428571l-7.314286-7.314285h10.971429z m102.4 0l3.657143 7.314286h10.971428l-10.971428 7.314285 3.657142 10.971429-7.314285-7.314286-10.971429 7.314286 3.657143-10.971429-7.314286-7.314285h10.971429z m97.523809 0l3.657143 7.314286h10.971429l-7.314286 7.314285 3.657143 10.971429-8.533334-7.314286-7.314285 7.314286 2.438095-10.971429-7.314286-7.314285h12.190476z m106.057143 0l3.657143 7.314286h10.971429l-10.971429 7.314285 3.657143 10.971429-7.314286-7.314286-10.971428 7.314286L512 219.428571l-7.314286-7.314285h10.971429zM58.514286 149.942857l3.657143 10.971429H73.142857l-10.971428 7.314285 3.657142 10.971429-7.314285-7.314286-7.314286 7.314286V168.228571l-7.314286-7.314285h10.971429z m102.4 0l3.657143 10.971429h7.314285l-7.314285 7.314285 3.657142 10.971429-7.314285-7.314286-10.971429 7.314286 3.657143-10.971429-7.314286-7.314285h10.971429z m102.4 0l4.87619 10.971429h10.971429l-10.971429 7.314285 3.657143 10.971429-7.314286-7.314286-10.971428 7.314286 3.657143-10.971429-7.314286-7.314285h10.971428z m102.4 0v10.971429h10.971428l-7.314285 7.314285 3.657142 10.971429-7.314285-7.314286-10.971429 7.314286 3.657143-10.971429-7.314286-7.314285h10.971429z m102.4 0l3.657143 10.971429h10.971428l-10.971428 7.314285 3.657142 10.971429-7.314285-7.314286-7.314286 7.314286V168.228571l-7.314286-7.314285h10.971429z m102.4 0l3.657143 10.971429h7.314285l-7.314285 7.314285 3.657142 10.971429-7.314285-7.314286-10.971429 7.314286 3.657143-10.971429-7.314286-7.314285h10.971429z m-460.8 168.228572l3.657143 10.971428h10.971428l-7.314286 7.314286 3.657143 10.971428L109.714286 341.333333l-7.314286 7.314286 3.657143-10.971429-10.971429-7.314285h10.971429z m102.4 0v10.971428h10.971428l-7.314285 7.314286 3.657142 10.971428-7.314285-6.095238-10.971429 7.314286 3.657143-10.971429-7.314286-7.314285h10.971429z m102.4 0l3.657143 10.971428h10.971428l-10.971428 7.314286 3.657142 10.971428-7.314285-7.314285-10.971429 7.314285 3.657143-10.971428-7.314286-7.314286h10.971429z m97.523809 0l3.657143 10.971428h10.971429l-7.314286 7.314286 3.657143 10.971428L414.47619 341.333333l-7.314285 7.314286 3.657143-10.971429-7.314286-7.314285H414.47619z m106.057143 0l3.657143 10.971428h10.971429l-10.971429 7.314286 3.657143 10.971428-7.314286-7.314285-10.971428 7.314285 4.87619-10.971428-7.314286-7.314286h10.971429zM58.514286 268.190476l3.657143 10.971429H73.142857l-10.971428 3.657143 3.657142 9.752381-7.314285-3.657143-7.314286 3.657143v-10.971429l-7.314286-3.657143h10.971429z m102.4 0l3.657143 10.971429h7.314285l-7.314285 3.657143 3.657142 9.752381-7.314285-3.657143-10.971429 3.657143 3.657143-10.971429-7.314286-3.657143h10.971429z m102.4 0l3.657143 10.971429h10.971428l-10.971428 3.657143 3.657142 10.971428-7.314285-3.657143-10.971429 3.657143 3.657143-10.971428-7.314286-3.657143h10.971429z m102.4 0v10.971429h10.971428l-7.314285 3.657143 3.657142 10.971428-7.314285-3.657143-10.971429 3.657143 3.657143-10.971428-7.314286-3.657143h10.971429z m102.4 0l3.657143 10.971429h10.971428l-10.971428 3.657143 3.657142 10.971428-7.314285-3.657143-7.314286 3.657143v-10.971428l-7.314286-3.657143h10.971429z m102.4 0l3.657143 10.971429h7.314285l-7.314285 3.657143 3.657142 10.971428-7.314285-3.657143-9.752381 2.438096 3.657143-10.971429-7.314286-3.657143h10.971428zM109.714286 435.2l3.657143 10.971429h10.971428l-7.314286 7.314285 3.657143 7.314286-10.971428-3.657143-7.314286 3.657143 3.657143-7.314286-10.971429-7.314285h10.971429z m102.4 0v10.971429h10.971428l-7.314285 7.314285 3.657142 7.314286-7.314285-3.657143-10.971429 3.657143 3.657143-7.314286-7.314286-7.314285h10.971429z m102.4 0l3.657143 10.971429h10.971428l-10.971428 7.314285 3.657142 7.314286-7.314285-3.657143-10.971429 3.657143 3.657143-7.314286-7.314286-7.314285h10.971429z m97.523809 0l3.657143 10.971429h10.971429l-7.314286 7.314285 3.657143 7.314286-8.533334-3.657143-7.314285 3.657143 3.657143-7.314286-7.314286-7.314285H414.47619z m106.057143 0l3.657143 10.971429h10.971429l-10.971429 7.314285 3.657143 7.314286-7.314286-3.657143-10.971428 3.657143 3.657142-7.314286-7.314285-7.314285h10.971428zM58.514286 384l3.657143 7.314286H73.142857l-10.971428 7.314285 3.657142 10.971429-7.314285-7.314286-7.314286 7.314286v-10.971429l-7.314286-7.314285h10.971429z m102.4 0l3.657143 7.314286h7.314285l-7.314285 7.314285 3.657142 10.971429-7.314285-7.314286-10.971429 7.314286 3.657143-10.971429-7.314286-7.314285h10.971429z m102.4 0l3.657143 7.314286h10.971428l-10.971428 7.314285 3.657142 10.971429-7.314285-7.314286-10.971429 7.314286 3.657143-10.971429-7.314286-7.314285h10.971429z m102.4 0v7.314286h10.971428l-7.314285 7.314285 3.657142 10.971429-7.314285-7.314286-10.971429 7.314286 3.657143-10.971429-7.314286-7.314285h10.971429z m102.4 0l3.657143 7.314286h10.971428l-10.971428 7.314285 3.657142 10.971429-7.314285-7.314286-7.314286 7.314286v-10.971429l-7.314286-7.314285h10.971429z m102.4 0l3.657143 7.314286h7.314285l-7.314285 7.314285 3.657142 10.971429-7.314285-7.314286-10.971429 7.314286 3.657143-10.971429-7.314286-7.314285h10.971429z m-512 106.057143l3.657143 10.971428H73.142857l-10.971428 7.314286 3.657142 10.971429-7.314285-7.314286-7.314286 7.314286v-10.971429l-7.314286-7.314286h10.971429z m102.4 0l3.657143 10.971428h7.314285l-7.314285 7.314286 3.657142 10.971429-7.314285-7.314286-10.971429 7.314286 3.657143-10.971429-7.314286-7.314286h10.971429z m102.4 0l3.657143 10.971428h10.971428l-10.971428 7.314286 3.657142 10.971429-7.314285-7.314286-10.971429 7.314286 3.657143-10.971429-7.314286-7.314286h10.971429z m102.4 0v10.971428h10.971428l-7.314285 7.314286 3.657142 10.971429-7.314285-7.314286-10.971429 7.314286 3.657143-10.971429-7.314286-7.314286h10.971429z m102.4 0l3.657143 10.971428h10.971428l-10.971428 7.314286 3.657142 10.971429-7.314285-7.314286-7.314286 7.314286v-10.971429l-7.314286-7.314286h10.971429z m102.4 0l3.657143 10.971428h7.314285l-7.314285 7.314286 3.657142 10.971429-7.314285-7.314286-10.971429 7.314286 3.657143-10.971429-7.314286-7.314286h10.971429z"
        fill="#FFFFFF" p-id="4698"></path>
</svg>