<svg t="1723277694573" class="icon" viewBox="0 0 1536 1024" version="1.1" xmlns="http://www.w3.org/2000/svg" p-id="5760"
    width="200" height="200">
    <path d="M0 0h1536.384096v1024H0V0z" fill="#F0371D" p-id="5761"></path>
    <path
        d="M255.03976 115.228807l32.264066 99.864966H391.777944l-84.501125 59.91898 31.495874 99.096774-84.501125-61.455363-84.501125 61.455363 32.264066-99.096774L119.069767 215.093773h104.474119l31.495874-99.864966z m271.171793-52.237059l-1.536384 35.336834 31.495874 12.291073-33.80045 8.450112-1.536384 33.800451-18.43661-29.191298-32.264066 7.68192 21.509378-26.118529-18.436609-28.423106 31.495874 13.827457 21.509377-27.654914z m116.765191 111.387847l-15.363841 29.95949 23.813954 23.813953-33.80045-4.609152-15.363841 29.95949-5.377345-33.80045-33.032258-4.609153 29.95949-15.363841-5.377344-33.80045 23.813953 23.813954 30.727682-15.363841z m-35.336834 138.274569l11.522881 33.032258H652.963241l-27.654914 19.972993 9.986497 32.264066-27.654914-19.972993-27.654914 19.972993 11.522881-33.032258-27.654914-19.204801h33.80045l9.986497-33.032258zM526.211553 418.664666l-2.304576 33.80045 32.264066 12.291073-33.80045 8.450113-2.304576 33.80045-17.668418-29.191298-33.80045 9.218304 22.27757-26.118529-19.204802-29.191298 32.264066 12.291073 22.27757-25.350338z"
        fill="#FBDC00" p-id="5762"></path>
</svg>